<svg width="20" height="20" viewBox="0 0 20 20" fill="none" xmlns="http://www.w3.org/2000/svg">
<path d="M6.29094 3.00571L6.37575 3C6.69216 3 6.95366 3.23513 6.99505 3.5402L7.00075 3.625L7 4.66667L7.375 4.67235C7.72018 4.67235 8 4.95217 8 5.29735V7.20907C8 8.01448 7.34708 8.6674 6.54167 8.6674H3.45833C2.65292 8.6674 2 8.01448 2 7.20907V5.29735C2 4.95217 2.27982 4.67235 2.625 4.67235H2.99993L3 3.63069C3 3.31427 3.23513 3.05278 3.54019 3.01139L3.625 3.00569C3.94141 3.00569 4.20291 3.24081 4.24429 3.54588L4.25 3.63069L4.24993 4.67235L5.75 4.66667L5.75075 3.625C5.75075 3.30859 5.98588 3.0471 6.29094 3.00571ZM7 5.66667V7.16667C7 7.41213 6.82312 7.61628 6.58988 7.65862L6.5 7.66667H3.5C3.25454 7.66667 3.05039 7.4898 3.00806 7.25655L3 7.16667V5.66667H7Z" fill="#212121"/>
<path fill-rule="evenodd" clip-rule="evenodd" d="M2 8.59526V12.5C2 13.8807 3.11929 15 4.5 15H13.5C14.8807 15 16 13.8807 16 12.5V11.6667L17.1667 11.6689C17.3184 11.6689 17.4608 11.6284 17.5833 11.5574C17.8324 11.4134 18 11.144 18 10.8356V9.16894C18 8.86052 17.8324 8.59119 17.5833 8.4471C17.4608 8.37619 17.3184 8.3356 17.1667 8.3356L16 8.33333V7.5C16 6.11929 14.8807 5 13.5 5H8.42487C8.47279 5.08843 8.5 5.18971 8.5 5.29735V5.94604H13.75L13.8778 5.9525C14.5081 6.01651 15 6.54883 15 7.19604V12.6913L14.9935 12.8191C14.9295 13.4494 14.3972 13.9413 13.75 13.9413H4.25L4.12219 13.9349C3.49187 13.8709 3 13.3385 3 12.6913V9.15891C2.59309 9.11499 2.23634 8.90369 2 8.59526ZM3.99898 9.1674V12.1107L4.00549 12.2155C4.05704 12.6274 4.40848 12.946 4.83436 12.946H7.16462L7.26941 12.9395C7.68131 12.888 8 12.5366 8 12.1107V8.80834C7.74371 9.03195 7.40851 9.1674 7.04167 9.1674H6.24162H3.99898Z" fill="#212121"/>
</svg>
