<svg width="20" height="20" viewBox="0 0 20 20" fill="none" xmlns="http://www.w3.org/2000/svg">
<path d="M2.58586 11.414C1.80471 10.633 1.80471 9.36683 2.58586 8.58588L8.58752 2.58571C9.36867 1.80476 10.6352 1.80476 11.4163 2.58571L17.418 8.58588C18.1991 9.36683 18.1991 10.633 17.418 11.414L11.4163 17.4141C10.6352 18.1951 9.36867 18.1951 8.58753 17.4141L2.58586 11.414ZM3.29305 9.2929C2.90248 9.68337 2.90248 10.3165 3.29306 10.7069L9.29472 16.7071C9.68529 17.0976 10.3185 17.0976 10.7091 16.7071L16.7108 10.7069C17.1014 10.3165 17.1013 9.68337 16.7108 9.2929L10.7091 3.29273C10.3185 2.90226 9.68529 2.90226 9.29472 3.29273L3.29305 9.2929Z" fill="#212121"/>
<path d="M4.63442 9.4343C4.32196 9.74667 4.32196 10.2532 4.63443 10.5655L9.43575 15.3657C9.74821 15.6781 10.2548 15.6781 10.5673 15.3657L15.3686 10.5655C15.6811 10.2532 15.681 9.74667 15.3686 9.4343L10.5673 4.63416C10.2548 4.32179 9.74821 4.32179 9.43575 4.63416L4.63442 9.4343Z" fill="#212121"/>
</svg>
