<?xml version="1.0" standalone="no"?>
<!DOCTYPE svg PUBLIC "-//W3C//DTD SVG 1.1//EN" "http://www.w3.org/Graphics/SVG/1.1/DTD/svg11.dtd" >
<svg xmlns="http://www.w3.org/2000/svg">
<defs>
  <font id="fluent-regular-icons" horiz-adv-x="500">
    <font-face font-family="fluent-regular-icons"
      units-per-em="500" ascent="500"
      descent="0" />
    <missing-glyph horiz-adv-x="0" />
    <glyph glyph-name="access_time"
      unicode="&#xE000;"
      horiz-adv-x="500" d="M174.7 284.8A12.5 12.5 0 0 0 150.275 290.075V290.2000000000001A46.275 46.275 0 0 0 152.025 295.9C153.275 298.975 155.225 303.15 158.325 307.4A42.5 42.5 0 0 0 193.825 325C207.65 325 218.875 319.625 226.55 310.975C234 302.55 237.5 291.675 237.5 281.25C237.5 272.525 235.775 265.05 232.375 258.6C229 252.2 224.375 247.575 219.7 243.975A117.825 117.825 0 0 0 207.7 236.15L206.3 235.3C202.1 232.8 198.65 230.625 195.675 228.05C185.825 219.525 179.375 210.5 176.575 200H225A12.5 12.5 0 0 0 225 175H162.5A12.5 12.5 0 0 0 150 187.5C150 212.75 161.875 231.85 179.325 246.95C184.075 251.1 189.225 254.2 193.5 256.7750000000001L194.95 257.6500000000001C198.8 259.925 201.775 261.7000000000001 204.425 263.75A20.1 20.1 0 0 1 210.25 270.25A22.925 22.925 0 0 1 212.5 281.25A19.95 19.95 0 0 1 207.825 294.4C205.075 297.5 200.75 300 193.825 300C185.575 300 181.2 296.35 178.475 292.625A24.975 24.975 0 0 1 174.8 285.125L174.7 284.8zM275 325A12.5 12.5 0 0 0 287.5 312.5V250H325V312.5A12.5 12.5 0 0 0 350 312.5V187.5A12.5 12.5 0 0 0 325 187.5V225H275A12.5 12.5 0 0 0 262.5 237.5V312.5A12.5 12.5 0 0 0 275 325zM250 450A200 200 0 1 1 250 50A200 200 0 0 1 250 450zM75 250A175 175 0 1 0 425 250A175 175 0 0 0 75 250z" />
    <glyph glyph-name="accessibility_checkmark"
      unicode="&#xE002;"
      horiz-adv-x="500" d="M212.5 387.55A37.5 37.5 0 1 0 287.5 387.55A37.5 37.5 0 0 0 212.5 387.55zM250 450.05A62.5 62.5 0 0 1 189.25 372.9L136.775 396.25A44.025 44.025 0 0 1 78.85 374.25C68.85 352.2 78.65 326.325 100.775 316.5L175 283.45V226.275L128.075 110.15A43.75 43.75 0 0 1 209.2 77.375L211.35 82.7A136.625 136.625 0 0 0 200.75 123.15L186.025 86.725A18.75 18.75 0 1 0 151.275 100.775L198.1750000000001 216.925A25 25 0 0 1 200 226.25V283.45A25 25 0 0 1 185.175 306.3L110.95 339.3250000000001A18.475 18.475 0 0 0 101.625 363.9A19.025 19.025 0 0 0 126.625 373.4L224.575 329.8A62.5 62.5 0 0 1 275.425 329.8L373.375 373.4A19.025 19.025 0 0 0 398.375 363.9A18.475 18.475 0 0 0 389.05 339.3250000000001L314.825 306.3A25 25 0 0 1 300 283.4500000000001V269.8250000000001A137 137 0 0 0 325 274.4500000000001V283.4500000000001L399.2 316.5A43.5 43.5 0 0 1 421.125 374.25A44.025 44.025 0 0 1 363.2 396.25L310.775 372.9A62.5 62.5 0 0 1 250.025 450.05zM450 137.5A112.5 112.5 0 1 0 225 137.5A112.5 112.5 0 0 0 450 137.5zM396.35 183.85A12.5 12.5 0 0 1 378.65 183.85L312.5 117.675L296.35 133.85A12.5 12.5 0 0 1 278.65 116.15L303.65 91.15A12.5 12.5 0 0 1 321.35 91.15L396.35 166.15A12.5 12.5 0 0 1 396.35 183.85z" />
    <glyph glyph-name="accessibility"
      unicode="&#xE001;"
      horiz-adv-x="500" d="M212.5 387.55A37.5 37.5 0 1 0 287.5 387.55A37.5 37.5 0 0 0 212.5 387.55zM250 450.05A62.5 62.5 0 0 1 189.25 372.9L136.775 396.25A44.025 44.025 0 0 1 78.85 374.25C68.85 352.2 78.65 326.325 100.775 316.5L175 283.45V226.275L128.075 110.15A43.75 43.75 0 0 1 209.2 77.375L248.1 173.6A1.825 1.825 0 0 0 248.8 174.55A2.15 2.15 0 0 0 249.95 174.85C250.45 174.85 250.825 174.725 251.1 174.55A1.85 1.85 0 0 0 251.8 173.6L290.675 77.375A43.75 43.75 0 0 1 371.8 110.15L325 226V283.45L399.2 316.5A43.5 43.5 0 0 1 421.125 374.25A44.025 44.025 0 0 1 363.2 396.25L310.775 372.9A62.5 62.5 0 0 1 250.025 450.05zM101.625 363.9A19.025 19.025 0 0 0 126.625 373.4L224.575 329.8A62.5 62.5 0 0 1 275.425 329.8L373.375 373.4A19.025 19.025 0 0 0 398.375 363.9A18.475 18.475 0 0 0 389.05 339.3250000000001L314.825 306.3A25 25 0 0 1 300 283.4500000000001V226A25 25 0 0 1 301.825 216.625L348.625 100.8A18.75 18.75 0 0 0 313.875 86.75L274.975 182.975C265.875 205.475 234 205.475 224.9 182.975L186.025 86.725A18.75 18.75 0 1 0 151.275 100.7749999999999L198.175 216.9249999999999A25 25 0 0 1 200 226.25V283.45A25 25 0 0 1 185.175 306.3L110.95 339.3250000000001A18.475 18.475 0 0 0 101.625 363.9z" />
    <glyph glyph-name="add_circle"
      unicode="&#xE004;"
      horiz-adv-x="500" d="M150 250A12.5 12.5 0 0 0 162.5 262.5H237.5V337.5A12.5 12.5 0 0 0 262.5 337.5V262.5H337.5A12.5 12.5 0 0 0 337.5 237.5H262.5V162.5A12.5 12.5 0 0 0 237.5 162.5V237.5H162.5A12.5 12.5 0 0 0 150 250zM250 50A200 200 0 1 1 250 450A200 200 0 0 1 250 50zM250 75A175 175 0 1 0 250 425A175 175 0 0 0 250 75z" />
    <glyph glyph-name="add_square_multiple"
      unicode="&#xE006;"
      horiz-adv-x="500" d="M400 368.3V175A75 75 0 0 0 325 100H131.7A50 50 0 0 1 175 75H325A100 100 0 0 1 425 175V325A50 50 0 0 1 400 368.3zM287.5 262.5A12.5 12.5 0 0 1 287.5 287.5H237.5V337.5A12.5 12.5 0 1 1 212.5 337.5V287.5H162.5A12.5 12.5 0 0 1 162.5 262.5H212.5V212.5A12.5 12.5 0 0 1 237.5 212.5V262.5H287.5zM325 425A50 50 0 0 0 375 375V175A50 50 0 0 0 325 125H125A50 50 0 0 0 75 175V375A50 50 0 0 0 125 425H325zM350 375A25 25 0 0 1 325 400H125A25 25 0 0 1 100 375V175A25 25 0 0 1 125 150H325A25 25 0 0 1 350 175V375z" />
    <glyph glyph-name="add_square"
      unicode="&#xE005;"
      horiz-adv-x="500" d="M75 375A50 50 0 0 0 125 425H375A50 50 0 0 0 425 375V125A50 50 0 0 0 375 75H125A50 50 0 0 0 75 125V375zM125 400A25 25 0 0 1 100 375V125A25 25 0 0 1 125 100H375A25 25 0 0 1 400 125V375A25 25 0 0 1 375 400H125zM250 350A12.5 12.5 0 0 0 262.5 337.5V262.5H337.5A12.5 12.5 0 0 0 337.5 237.5H262.5V162.5A12.5 12.5 0 0 0 237.5 162.5V237.5H162.5A12.5 12.5 0 0 0 162.5 262.5H237.5V337.5A12.5 12.5 0 0 0 250 350z" />
    <glyph glyph-name="add_subtract_circle"
      unicode="&#xE007;"
      horiz-adv-x="500" d="M275 187.5A12.5 12.5 0 0 0 287.5 200H362.5A12.5 12.5 0 0 0 362.5 175H287.5A12.5 12.5 0 0 0 275 187.5zM200 362.5A12.5 12.5 0 0 1 175 362.5V337.5H150A12.5 12.5 0 1 1 150 312.5H175V287.5A12.5 12.5 0 0 1 200 287.5V312.5H225A12.5 12.5 0 1 1 225 337.5H200V362.5zM250 50A200 200 0 1 1 250 450A200 200 0 0 1 250 50zM250 75A174.325 174.325 0 0 0 135.4 117.75L382.2750000000001 364.6A175 175 0 0 0 250 75zM117.75 135.4A175 175 0 0 0 364.6 382.25L117.725 135.4z" />
    <glyph glyph-name="add"
      unicode="&#xE003;"
      horiz-adv-x="500" d="M250 437.5A12.5 12.5 0 0 1 225 437.5V275H62.5A12.5 12.5 0 0 1 62.5 250H225V87.5A12.5 12.5 0 0 1 250 87.5V250H412.5A12.5 12.5 0 0 1 412.5 275H250V437.5z" />
    <glyph glyph-name="airplane_take_off"
      unicode="&#xE009;"
      horiz-adv-x="500" d="M362.6 400C327.1500000000001 400.25 296.65 376 282.475 362.825A51.4 51.4 0 0 0 264.1 351.2L253.725 347.75L187.7 393A39.9 39.9 0 0 1 165.125 400C132 400 113.3 361.875 133.625 335.675L150.825 313.45L118.975 302.825L104.15 333.425C90.95 360.675 50 351.25 50 321V246.35A43.75 43.75 0 0 1 108.025 205L183.475 231.075L176.15 194.45C168.375 155.575 218.325 132.8 242.575 164.15L320.025 264.3L424.5 298.075C445.45 304.875 457.8 330.075 442.9249999999999 350.35C428.1749999999999 370.525 400.6249999999999 399.725 362.5999999999999 400zM175.975 321.8250000000001L153.375 351A14.9 14.9 0 0 0 173.55 372.425L224 337.825L176 321.8250000000001zM299.5 344.525C313.175 357.275 337.375 375.175 362.4000000000001 375C387.6 374.8250000000001 408.65 354.85 422.75 335.6A7.5 7.5 0 0 0 423.825 328.1500000000001A10.975 10.975 0 0 0 416.8 321.875L308.65 286.875A12.5 12.5 0 0 1 302.6 282.625L222.8 179.4500000000001C214.725 169.0000000000001 198.05 176.575 200.65 189.55L207.975 226.1500000000001A25 25 0 0 1 175.3 254.7L99.875 228.6250000000001A18.75 18.75 0 0 0 75 246.375V321C75 322.25 75.375 322.9 75.7 323.25A3.8 3.8 0 0 0 77.7 324.4A3.8 3.8 0 0 0 80.05 324.25C80.475 324.075 81.1 323.675 81.65 322.5L101.25 282.05A12.5 12.5 0 0 1 116.45 275.65L272 327.5C282.825 331.1 291.975 337.5 299.5 344.5zM62.5 75A12.5 12.5 0 0 1 62.5 50H437.5A12.5 12.5 0 0 1 437.5 75H62.5z" />
    <glyph glyph-name="airplane"
      unicode="&#xE008;"
      horiz-adv-x="500" d="M219.55 292.75L202.425 429.85A29.05 29.05 0 0 0 227.65 462.25L229.45 462.425L233.65 462.475A37.5 37.5 0 0 0 268 440L330.8 296.4500000000001L399.6 298.7000000000001A48.775 48.775 0 0 0 449.75 255.2500000000001L450 251.6250000000001L450 250C450 223.075 428.175 201.25 401 201.25L330.825 203.55L268 59.975A37.5 37.5 0 0 0 233.65 37.5H231.25A29.05 29.05 0 0 0 202.425 70.15L219.55 207.275L166 209.05L142.05 167.15A34.025 34.025 0 0 0 112.5 150A25 25 0 0 0 87.5 175V211.65L83.475 211.975A38.35 38.35 0 0 0 83.45 288.025L87.5 288.35V325A25 25 0 0 0 112.5 350C124.725 350 136 343.45 142.05 332.85L166 290.975L219.55 292.75zM233.65 437.5L230.75 437.475A4.05 4.05 0 0 1 227.25 432.9500000000001L247.75 268.7000000000001L151.75 265.475L120.35 320.4500000000001A9.05 9.05 0 0 1 112.5 325V264.2L87.9 263.35A13.35 13.35 0 0 1 87.9 236.65L112.5 235.85V175L114.4 175.2A9.025 9.025 0 0 1 120.35 179.55L151.75 234.55L247.75 231.325L227.2 66.5749999999999C227.2 64.3249999999999 229 62.4999999999999 231.2500000000001 62.4999999999999H233.6500000000001A12.5 12.5 0 0 1 245.1000000000001 69.9999999999999L314.7250000000001 229.1L401.2250000000001 226.225A23.75 23.75 0 0 1 425 250V250.8A23.75 23.75 0 0 1 400.425 273.75L314.675 270.925L245.125 430A12.5 12.5 0 0 1 233.675 437.5z" />
    <glyph glyph-name="album_add"
      unicode="&#xE00B;"
      horiz-adv-x="500" d="M50 350A50 50 0 0 0 100 400H400A50 50 0 0 0 450 350V150A50 50 0 0 0 400 100H260C264.05 107.925 267.35 116.275 269.8250000000001 125H400A25 25 0 0 1 425 150V350A25 25 0 0 1 400 375H150V299.45A139.25 139.25 0 0 1 125 299.45V375H100A25 25 0 0 1 75 350V285A137.7 137.7 0 0 1 50 268.5750000000001V350zM337.5 225H260A137.675 137.675 0 0 1 243.575 250H337.5A12.5 12.5 0 0 1 350 262.5V287.5A12.5 12.5 0 0 1 337.5 300H237.5A12.5 12.5 0 0 1 225 287.5V268.5750000000001A137.7 137.7 0 0 1 200 285V287.5A37.5 37.5 0 0 0 237.5 325H337.5A37.5 37.5 0 0 0 375 287.5V262.5A37.5 37.5 0 0 0 337.5 225zM250 162.5A112.5 112.5 0 1 0 25 162.5A112.5 112.5 0 0 0 250 162.5zM150 212.5A12.5 12.5 0 0 1 125 212.5V175H87.5A12.5 12.5 0 0 1 87.5 150H125V112.5A12.5 12.5 0 0 1 150 112.5V150H187.5A12.5 12.5 0 0 1 187.5 175H150V212.5z" />
    <glyph glyph-name="album"
      unicode="&#xE00A;"
      horiz-adv-x="500" d="M200 287.5A37.5 37.5 0 0 0 237.5 325H337.5A37.5 37.5 0 0 0 375 287.5V262.5A37.5 37.5 0 0 0 337.5 225H237.5A37.5 37.5 0 0 0 200 262.5V287.5zM237.5 300A12.5 12.5 0 0 1 225 287.5V262.5A12.5 12.5 0 0 1 237.5 250H337.5A12.5 12.5 0 0 1 350 262.5V287.5A12.5 12.5 0 0 1 337.5 300H237.5zM50 350A50 50 0 0 0 100 400H400A50 50 0 0 0 450 350V150A50 50 0 0 0 400 100H100A50 50 0 0 0 50 150V350zM150 125H400A25 25 0 0 1 425 150V350A25 25 0 0 1 400 375H150V125zM125 375H100A25 25 0 0 1 75 350V150A25 25 0 0 1 100 125H125V375z" />
    <glyph glyph-name="alert_badge"
      unicode="&#xE00D;"
      horiz-adv-x="500" d="M249.95 450C277.2 450 302.775 443 324.825 430.75A75.3 75.3 0 0 1 309.075 410.825A129.05 129.05 0 0 1 249.975 425C184.4 425 130.725 376.9 125.475 315.375L125.125 310.0750000000001L125 304.9500000000001V212.5L124.05 207.7L99.975 149.875L398.925 149.825L400.0500000000001 149.875L375.9750000000001 207.7L375 212.5V300C383.775 300 392.2 301.5 400 304.25V215.05L423.125 159.5C423.675 158.15 424.125 156.7500000000001 424.4500000000001 155.3250000000001L424.8250000000001 153.175L425.0500000000001 149.875A25 25 0 0 0 406.3000000000001 125.8000000000001L403.4000000000001 125.1250000000001L400.0500000000001 124.8750000000001L312.5000000000001 124.9L312.3750000000001 120.8750000000001A62.5 62.5 0 0 0 187.6250000000001 120.8750000000001L187.5000000000001 124.9H100A24.95 24.95 0 0 0 93.5 125.7500000000001L90.375 126.8000000000001A25 25 0 0 0 75.3 153.1000000000001L75.85 156.3000000000001L76.9 159.5000000000001L99.975 214.975L100 305.175L100.125 310.8C103.175 388.725 169.25 450 249.95 450zM287.5 124.9H212.5L212.675 121.375A37.5 37.5 0 0 1 246.4 87.675L250 87.5A37.5 37.5 0 0 1 287.325 121.375L287.5 124.9zM330.175 397.1500000000001C333.925 404.7750000000001 339.575 411.2750000000001 346.5000000000001 416.0750000000001A50 50 0 1 0 330.175 397.1500000000001z" />
    <glyph glyph-name="alert_off"
      unicode="&#xE00E;"
      horiz-adv-x="500" d="M100.1 310.8A140.5 140.5 0 0 0 114.6 367.725L53.65 428.65A12.5 12.5 0 1 0 71.35 446.35L446.35 71.35A12.5 12.5 0 0 0 428.6500000000001 53.65L357.425 124.9H312.5L312.375 120.875A62.5 62.5 0 0 0 187.625 120.875L187.5 124.9H99.975A24.95 24.95 0 0 0 93.475 125.75L90.375 126.8A25 25 0 0 0 75.3 153.1L75.825 156.3L76.9 159.5L99.975 214.975L100 305.175L100.1 310.8zM332.475 149.85L133.475 348.85C129.2 338.35 126.425 327.1 125.425 315.375L125.1 310.0750000000001L125 304.9500000000001V212.5L124.05 207.7L99.975 149.875L332.475 149.85zM287.475 124.9H212.475L212.675 121.375A37.5 37.5 0 0 1 246.4 87.675L250 87.5A37.5 37.5 0 0 1 287.325 121.375L287.5 124.9zM375.975 207.7L397.825 155.2L419.125 133.9A24.425 24.425 0 0 1 425.0249999999999 149.9L424.825 153.15L424.425 155.3250000000001A24.9 24.9 0 0 1 423.1 159.5L400 215.05L400 304.9500000000001L399.875 310.55L399.55 316.125C393.55 391.625 328.675 450 249.95 450C208.95 450 171.75 434.175 144.625 408.4L162.3 390.725A127.5 127.5 0 0 0 249.95 425C317.375 425 372.275 374.125 374.9 309.8L375 304.7000000000001V212.5L375.95 207.7z" />
    <glyph glyph-name="alert_on"
      unicode="&#xE00F;"
      horiz-adv-x="500" d="M44.9 447.55A12.5 12.5 0 1 1 29.9 427.55L79.95 390A12.5 12.5 0 1 1 94.95 410L44.9 447.55zM25 325A12.5 12.5 0 0 1 25 300H62.5A12.5 12.5 0 0 1 62.5 325H25zM249.95 450C328.675 450 393.55 391.65 399.55 316.125L399.9 310.575L400 304.95L399.975 215.05L423.1 159.5A25 25 0 0 0 424.425 155.3250000000001L424.825 153.175L425.0249999999999 149.9A25 25 0 0 0 406.3 125.8250000000001L403.4 125.15L400.0249999999999 124.9H312.5L312.375 120.9A62.5 62.5 0 0 0 187.625 120.9L187.5 124.9H99.975C97.775 124.9 95.6 125.175 93.475 125.7500000000001L90.375 126.8250000000001A25 25 0 0 0 75.3 153.1250000000001L75.825 156.3000000000001L76.9 159.5000000000001L99.975 215.0000000000001L100 305.175L100.1 310.775C103.175 388.75 169.275 450 249.95 450zM287.5 124.9H212.5L212.675 121.375A37.5 37.5 0 0 1 246.4 87.675L250 87.5A37.5 37.5 0 0 1 287.325 121.4L287.5 124.9zM249.95 425C184.375 425 130.7 376.925 125.45 315.375L125.1 310.0750000000001L125 304.9500000000001V212.5L124.05 207.7L99.975 149.9L398.925 149.85L400.0500000000001 149.9L375.9500000000001 207.7L375 212.5V304.7L374.9000000000001 309.8C372.275 374.15 317.375 425 249.95 425zM472.6 445.05A12.5 12.5 0 0 1 455.1 447.55L405.0500000000001 410A12.5 12.5 0 0 1 420.0500000000001 390L470.1 427.55A12.5 12.5 0 0 1 472.6000000000001 445.05zM487.5 312.5A12.5 12.5 0 0 1 475 325H437.5A12.5 12.5 0 0 1 437.5 300H475A12.5 12.5 0 0 1 487.5 312.5z" />
    <glyph glyph-name="alert_snooze"
      unicode="&#xE010;"
      horiz-adv-x="500" d="M125 212.5V298.625A12.625 12.625 0 0 1 125.075 300A125 125 0 0 0 284.075 420.325A12.5 12.5 0 1 1 290.875 444.375A150 150 0 0 1 100.1 301.5A12.6 12.6 0 0 1 100 300.05V215L76.925 159.6A25 25 0 0 1 100 125H187.5A62.5 62.5 0 0 1 312.5 125H400A25 25 0 0 1 423.0750000000001 159.6L400 215V250.05A12.5 12.5 0 0 1 375 250.05V212.5A12.5 12.5 0 0 1 375.975 207.7L400 150H100L124.05 207.7A12.5 12.5 0 0 1 125 212.5zM212.5 125H287.5A37.5 37.5 0 0 0 212.5 125zM350 450H437.5A12.5 12.5 0 0 0 448.8000000000001 432.15L447.7250000000001 430.325L374 325H437.5A12.5 12.5 0 0 0 439.75 300.2L437.5 300H350A12.5 12.5 0 0 0 338.7 317.85L339.75 319.675L413.5 425H350A12.5 12.5 0 0 0 347.75 449.8L350 450zM237.5 350H300A12.5 12.5 0 0 0 310.8 331.175L309.6 329.5L264.25 275H300A12.5 12.5 0 0 0 302.25 250.2L300 250H237.5A12.5 12.5 0 0 0 226.7 268.825L227.9 270.5L273.325 325H237.525A12.5 12.5 0 0 0 235.275 349.8L237.525 350z" />
    <glyph glyph-name="alert_urgent"
      unicode="&#xE011;"
      horiz-adv-x="500" d="M331.6 448.05A12.5 12.5 0 1 1 318.525 426.75C374.975 392.15 421.5250000000001 341.4 425.0249999999999 249.5A12.5 12.5 0 0 1 450 250.45C446.075 352.925 393.05 410.4 331.6 448.05zM302.15 381.8A12.5 12.5 0 0 0 319.5 385.1500000000001C359.6749999999999 358.025 387.375 319.2000000000001 391.7 274.55C392.0999999999999 270.55 392.2999999999999 266.475 392.2999999999999 262.375A12.5 12.5 0 0 0 367.2999999999999 262.375C367.2999999999999 265.675 367.125 268.925 366.8 272.125C363.3999999999999 307.575 341.2 340.325 305.5 364.45A12.5 12.5 0 0 0 302.1499999999999 381.8zM127 364.05A128.95 128.95 0 0 1 61.65 193.775L92.225 125.05L94.475 67.0500000000001A18.75 18.75 0 0 1 120.825 50.6500000000001L364 158.9000000000001A18.75 18.75 0 0 1 369.45 189.4750000000001L327.85 229.9500000000001L297.25 298.6750000000002A128.95 128.95 0 0 1 127 364.0250000000001zM84.5 203.9500000000001A103.95 103.95 0 0 0 274.4 288.5L306.95 215.3750000000001L345.4 178L119.1 77.25L117.025 130.825L84.475 203.9500000000001zM266.95 53.1000000000001A37.25 37.25 0 0 0 220.7499999999999 66.6L287.875 96.45A37.25 37.25 0 0 0 266.95 53.1000000000001z" />
    <glyph glyph-name="alert"
      unicode="&#xE00C;"
      horiz-adv-x="500" d="M249.95 450C328.675 450 393.55 391.625 399.55 316.125L399.9 310.55L400 304.95L399.975 215.05L423.1 159.5C423.675 158.15 424.1 156.7500000000001 424.425 155.3250000000001L424.825 153.175L425.0249999999999 149.875A25 25 0 0 0 406.3 125.8000000000001L403.4 125.1250000000001L400.0249999999999 124.8750000000001L312.5 124.9L312.375 120.8750000000001A62.5 62.5 0 0 0 187.625 120.8750000000001L187.5 124.9H99.975A24.95 24.95 0 0 0 93.475 125.7500000000001L90.375 126.8000000000001A25 25 0 0 0 75.3 153.1000000000001L75.825 156.3000000000001L76.9 159.5000000000001L99.975 214.975L100 305.175L100.1 310.8C103.175 388.725 169.275 450 249.95 450zM287.5 124.9H212.5L212.675 121.375A37.5 37.5 0 0 1 246.4 87.675L250 87.5A37.5 37.5 0 0 1 287.325 121.375L287.5 124.9zM249.95 425C184.375 425 130.7 376.9 125.45 315.375L125.1 310.0750000000001L125 304.9500000000001V212.5L124.05 207.7L99.975 149.875L398.925 149.825L400.0500000000001 149.875L375.9500000000001 207.7L375 212.5V304.7L374.9000000000001 309.8C372.275 374.125 317.375 425 249.95 425z" />
    <glyph glyph-name="align_bottom"
      unicode="&#xE012;"
      horiz-adv-x="500" d="M50 87.5A12.5 12.5 0 0 1 62.5 75H437.5A12.5 12.5 0 0 1 437.5 100H62.5A12.5 12.5 0 0 1 50 87.5zM275 175A50 50 0 0 1 325 125H350A50 50 0 0 1 400 175V300A50 50 0 0 1 350 350H325A50 50 0 0 1 275 300V175zM325 150A25 25 0 0 0 300 175V300A25 25 0 0 0 325 325H350A25 25 0 0 0 375 300V175A25 25 0 0 0 350 150H325zM150 125A50 50 0 0 0 100 175V375A50 50 0 0 0 150 425H175A50 50 0 0 0 225 375V175A50 50 0 0 0 175 125H150zM125 175A25 25 0 0 1 150 150H175A25 25 0 0 1 200 175V375A25 25 0 0 1 175 400H150A25 25 0 0 1 125 375V175z" />
    <glyph glyph-name="align_center_horizontal"
      unicode="&#xE013;"
      horiz-adv-x="500" d="M450 262.5A12.5 12.5 0 0 0 437.5 250H400V200A50 50 0 0 0 350 150H325A50 50 0 0 0 275 200V250H225V150A50 50 0 0 0 175 100H150A50 50 0 0 0 100 150V250H62.5A12.5 12.5 0 0 0 62.5 275H100V375A50 50 0 0 0 150 425H175A50 50 0 0 0 225 375V275H275V325A50 50 0 0 0 325 375H350A50 50 0 0 0 400 325V275H437.5A12.5 12.5 0 0 0 450 262.5zM125 150A25 25 0 0 1 150 125H175A25 25 0 0 1 200 150V375A25 25 0 0 1 175 400H150A25 25 0 0 1 125 375V150zM300 200A25 25 0 0 1 325 175H350A25 25 0 0 1 375 200V325A25 25 0 0 1 350 350H325A25 25 0 0 1 300 325V200z" />
    <glyph glyph-name="align_center_vertical"
      unicode="&#xE014;"
      horiz-adv-x="500" d="M262.5 50A12.5 12.5 0 0 0 250 62.5V100H200A50 50 0 0 0 150 150V175A50 50 0 0 0 200 225H250V275H150A50 50 0 0 0 100 325V350A50 50 0 0 0 150 400H250V437.5A12.5 12.5 0 0 0 275 437.5V400H375A50 50 0 0 0 425 350V325A50 50 0 0 0 375 275H275V225H325A50 50 0 0 0 375 175V150A50 50 0 0 0 325 100H275V62.5A12.5 12.5 0 0 0 262.5 50zM150 375A25 25 0 0 1 125 350V325A25 25 0 0 1 150 300H375A25 25 0 0 1 400 325V350A25 25 0 0 1 375 375H150zM200 200A25 25 0 0 1 175 175V150A25 25 0 0 1 200 125H325A25 25 0 0 1 350 150V175A25 25 0 0 1 325 200H200z" />
    <glyph glyph-name="align_end_horizontal"
      unicode="&#xE015;"
      horiz-adv-x="500" d="M412.5 50A12.5 12.5 0 0 0 400 62.5V437.5A12.5 12.5 0 0 0 425 437.5V62.5A12.5 12.5 0 0 0 412.5 50zM250 400A50 50 0 0 1 200 350V150A50 50 0 0 1 250 100H300A50 50 0 0 1 350 150V350A50 50 0 0 1 300 400H250zM225 350A25 25 0 0 0 250 375H300A25 25 0 0 0 325 350V150A25 25 0 0 0 300 125H250A25 25 0 0 0 225 150V350z" />
    <glyph glyph-name="align_end_vertical"
      unicode="&#xE016;"
      horiz-adv-x="500" d="M150 300A50 50 0 0 1 100 250V200A50 50 0 0 1 150 150H350A50 50 0 0 1 400 200V250A50 50 0 0 1 350 300H150zM125 250A25 25 0 0 0 150 275H350A25 25 0 0 0 375 250V200A25 25 0 0 0 350 175H150A25 25 0 0 0 125 200V250zM50 87.5A12.5 12.5 0 0 0 62.5 100H437.5A12.5 12.5 0 0 0 437.5 75H62.5A12.5 12.5 0 0 0 50 87.5z" />
    <glyph glyph-name="align_left"
      unicode="&#xE017;"
      horiz-adv-x="500" d="M87.5 450A12.5 12.5 0 0 1 75 437.5V62.5A12.5 12.5 0 0 1 100 62.5V437.5A12.5 12.5 0 0 1 87.5 450zM175 225A50 50 0 0 1 125 175V150A50 50 0 0 1 175 100H300A50 50 0 0 1 350 150V175A50 50 0 0 1 300 225H175zM150 175A25 25 0 0 0 175 200H300A25 25 0 0 0 325 175V150A25 25 0 0 0 300 125H175A25 25 0 0 0 150 150V175zM125 350A50 50 0 0 0 175 400H375A50 50 0 0 0 425 350V325A50 50 0 0 0 375 275H175A50 50 0 0 0 125 325V350zM175 375A25 25 0 0 1 150 350V325A25 25 0 0 1 175 300H375A25 25 0 0 1 400 325V350A25 25 0 0 1 375 375H175z" />
    <glyph glyph-name="align_right"
      unicode="&#xE018;"
      horiz-adv-x="500" d="M412.5 450A12.5 12.5 0 0 0 425 437.5V62.5A12.5 12.5 0 0 0 400 62.5V437.5A12.5 12.5 0 0 0 412.5 450zM325 225A50 50 0 0 0 375 175V150A50 50 0 0 0 325 100H200A50 50 0 0 0 150 150V175A50 50 0 0 0 200 225H325zM350 175A25 25 0 0 1 325 200H200A25 25 0 0 1 175 175V150A25 25 0 0 1 200 125H325A25 25 0 0 1 350 150V175zM375 350A50 50 0 0 1 325 400H125A50 50 0 0 1 75 350V325A50 50 0 0 1 125 275H325A50 50 0 0 1 375 325V350zM325 375A25 25 0 0 0 350 350V325A25 25 0 0 0 325 300H125A25 25 0 0 0 100 325V350A25 25 0 0 0 125 375H325z" />
    <glyph glyph-name="align_space_around_horizontal"
      unicode="&#xE019;"
      horiz-adv-x="500" d="M150 400H175A50 50 0 0 0 225 350V150A50 50 0 0 0 175 100H150A50 50 0 0 0 100 150V350A50 50 0 0 0 150 400zM125 350V150A25 25 0 0 1 150 125H175A25 25 0 0 1 200 150V350A25 25 0 0 1 175 375H150A25 25 0 0 1 125 350zM325 400A50 50 0 0 1 275 350V150A50 50 0 0 1 325 100H350A50 50 0 0 1 400 150V350A50 50 0 0 1 350 400H325zM300 350A25 25 0 0 0 325 375H350A25 25 0 0 0 375 350V150A25 25 0 0 0 350 125H325A25 25 0 0 0 300 150V350z" />
    <glyph glyph-name="align_space_around_vertical"
      unicode="&#xE01A;"
      horiz-adv-x="500" d="M150 400A50 50 0 0 1 100 350V325A50 50 0 0 1 150 275H350A50 50 0 0 1 400 325V350A50 50 0 0 1 350 400H150zM125 350A25 25 0 0 0 150 375H350A25 25 0 0 0 375 350V325A25 25 0 0 0 350 300H150A25 25 0 0 0 125 325V350zM150 225A50 50 0 0 1 100 175V150A50 50 0 0 1 150 100H350A50 50 0 0 1 400 150V175A50 50 0 0 1 350 225H150zM125 175A25 25 0 0 0 150 200H350A25 25 0 0 0 375 175V150A25 25 0 0 0 350 125H150A25 25 0 0 0 125 150V175z" />
    <glyph glyph-name="align_space_between_horizontal"
      unicode="&#xE01B;"
      horiz-adv-x="500" d="M75 400A50 50 0 0 1 25 350V150A50 50 0 0 1 75 100H100A50 50 0 0 1 150 150V350A50 50 0 0 1 100 400H75zM50 350A25 25 0 0 0 75 375H100A25 25 0 0 0 125 350V150A25 25 0 0 0 100 125H75A25 25 0 0 0 50 150V350zM400 400A50 50 0 0 1 350 350V150A50 50 0 0 1 400 100H425A50 50 0 0 1 475 150V350A50 50 0 0 1 425 400H400zM375 350A25 25 0 0 0 400 375H425A25 25 0 0 0 450 350V150A25 25 0 0 0 425 125H400A25 25 0 0 0 375 150V350z" />
    <glyph glyph-name="align_space_between_vertical"
      unicode="&#xE01C;"
      horiz-adv-x="500" d="M150 475A50 50 0 0 1 100 425V400A50 50 0 0 1 150 350H350A50 50 0 0 1 400 400V425A50 50 0 0 1 350 475H150zM125 425A25 25 0 0 0 150 450H350A25 25 0 0 0 375 425V400A25 25 0 0 0 350 375H150A25 25 0 0 0 125 400V425zM150 150A50 50 0 0 1 100 100V75A50 50 0 0 1 150 25H350A50 50 0 0 1 400 75V100A50 50 0 0 1 350 150H150zM125 100A25 25 0 0 0 150 125H350A25 25 0 0 0 375 100V75A25 25 0 0 0 350 50H150A25 25 0 0 0 125 75V100z" />
    <glyph glyph-name="align_space_evenly_horizontal"
      unicode="&#xE01D;"
      horiz-adv-x="500" d="M75 100A50 50 0 0 0 25 150V350A50 50 0 0 0 75 400H100A50 50 0 0 0 150 350V150A50 50 0 0 0 100 100H75zM50 150A25 25 0 0 1 75 125H100A25 25 0 0 1 125 150V350A25 25 0 0 1 100 375H75A25 25 0 0 1 50 350V150zM225 100A50 50 0 0 0 175 150V350A50 50 0 0 0 225 400H250A50 50 0 0 0 300 350V150A50 50 0 0 0 250 100H225zM200 150A25 25 0 0 1 225 125H250A25 25 0 0 1 275 150V350A25 25 0 0 1 250 375H225A25 25 0 0 1 200 350V150zM375 100A50 50 0 0 0 325 150V350A50 50 0 0 0 375 400H400A50 50 0 0 0 450 350V150A50 50 0 0 0 400 100H375zM350 150A25 25 0 0 1 375 125H400A25 25 0 0 1 425 150V350A25 25 0 0 1 400 375H375A25 25 0 0 1 350 350V150z" />
    <glyph glyph-name="align_space_evenly_vertical"
      unicode="&#xE01E;"
      horiz-adv-x="500" d="M100 425A50 50 0 0 0 150 475H350A50 50 0 0 0 400 425V400A50 50 0 0 0 350 350H150A50 50 0 0 0 100 400V425zM150 450A25 25 0 0 1 125 425V400A25 25 0 0 1 150 375H350A25 25 0 0 1 375 400V425A25 25 0 0 1 350 450H150zM100 125A50 50 0 0 0 150 175H350A50 50 0 0 0 400 125V100A50 50 0 0 0 350 50H150A50 50 0 0 0 100 100V125zM150 150A25 25 0 0 1 125 125V100A25 25 0 0 1 150 75H350A25 25 0 0 1 375 100V125A25 25 0 0 1 350 150H150zM150 325A50 50 0 0 1 100 275V250A50 50 0 0 1 150 200H350A50 50 0 0 1 400 250V275A50 50 0 0 1 350 325H150zM125 275A25 25 0 0 0 150 300H350A25 25 0 0 0 375 275V250A25 25 0 0 0 350 225H150A25 25 0 0 0 125 250V275z" />
    <glyph glyph-name="align_space_fit_vertical"
      unicode="&#xE01F;"
      horiz-adv-x="500" d="M150 475A50 50 0 0 1 100 425V312.5A50 50 0 0 1 150 262.5H350A50 50 0 0 1 400 312.5V425A50 50 0 0 1 350 475H150zM125 425A25 25 0 0 0 150 450H350A25 25 0 0 0 375 425V312.5A25 25 0 0 0 350 287.5H150A25 25 0 0 0 125 312.5V425zM150 237.5A50 50 0 0 1 100 187.5V75A50 50 0 0 1 150 25H350A50 50 0 0 1 400 75V187.5A50 50 0 0 1 350 237.5H150zM125 187.5A25 25 0 0 0 150 212.5H350A25 25 0 0 0 375 187.5V75A25 25 0 0 0 350 50H150A25 25 0 0 0 125 75V187.5z" />
    <glyph glyph-name="align_start_horizontal"
      unicode="&#xE020;"
      horiz-adv-x="500" d="M87.5 50A12.5 12.5 0 0 0 75 62.5V437.5A12.5 12.5 0 0 0 100 437.5V62.5A12.5 12.5 0 0 0 87.5 50zM200 400A50 50 0 0 1 150 350V150A50 50 0 0 1 200 100H250A50 50 0 0 1 300 150V350A50 50 0 0 1 250 400H200zM175 350A25 25 0 0 0 200 375H250A25 25 0 0 0 275 350V150A25 25 0 0 0 250 125H200A25 25 0 0 0 175 150V350z" />
    <glyph glyph-name="align_start_vertical"
      unicode="&#xE021;"
      horiz-adv-x="500" d="M50 412.5A12.5 12.5 0 0 0 62.5 425H437.5A12.5 12.5 0 0 0 437.5 400H62.5A12.5 12.5 0 0 0 50 412.5zM150 350A50 50 0 0 1 100 300V250A50 50 0 0 1 150 200H350A50 50 0 0 1 400 250V300A50 50 0 0 1 350 350H150zM125 300A25 25 0 0 0 150 325H350A25 25 0 0 0 375 300V250A25 25 0 0 0 350 225H150A25 25 0 0 0 125 250V300z" />
    <glyph glyph-name="align_stretch_horizontal"
      unicode="&#xE022;"
      horiz-adv-x="500" d="M75 62.5A12.5 12.5 0 0 1 100 62.5V437.5A12.5 12.5 0 0 1 75 437.5V62.5zM400 62.5A12.5 12.5 0 0 1 425 62.5V437.5A12.5 12.5 0 0 1 400 437.5V62.5zM325 100A50 50 0 0 1 375 150V175A50 50 0 0 1 325 225H175A50 50 0 0 1 125 175V150A50 50 0 0 1 175 100H325zM350 150A25 25 0 0 0 325 125H175A25 25 0 0 0 150 150V175A25 25 0 0 0 175 200H325A25 25 0 0 0 350 175V150zM375 325A50 50 0 0 0 325 275H175A50 50 0 0 0 125 325V350A50 50 0 0 0 175 400H325A50 50 0 0 0 375 350V325zM325 300A25 25 0 0 1 350 325V350A25 25 0 0 1 325 375H175A25 25 0 0 1 150 350V325A25 25 0 0 1 175 300H325z" />
    <glyph glyph-name="align_stretch_vertical"
      unicode="&#xE023;"
      horiz-adv-x="500" d="M62.5 425A12.5 12.5 0 0 1 62.5 400H437.5A12.5 12.5 0 0 1 437.5 425H62.5zM62.5 100A12.5 12.5 0 0 1 62.5 75H437.5A12.5 12.5 0 0 1 437.5 100H62.5zM100 175A50 50 0 0 1 150 125H175A50 50 0 0 1 225 175V325A50 50 0 0 1 175 375H150A50 50 0 0 1 100 325V175zM150 150A25 25 0 0 0 125 175V325A25 25 0 0 0 150 350H175A25 25 0 0 0 200 325V175A25 25 0 0 0 175 150H150zM325 125H350A50 50 0 0 1 400 175V325A50 50 0 0 1 350 375H325A50 50 0 0 1 275 325V175A50 50 0 0 1 325 125zM300 175V325A25 25 0 0 0 325 350H350A25 25 0 0 0 375 325V175A25 25 0 0 0 350 150H325A25 25 0 0 0 300 175z" />
    <glyph glyph-name="align_top"
      unicode="&#xE024;"
      horiz-adv-x="500" d="M50 412.5A12.5 12.5 0 0 0 62.5 425H437.5A12.5 12.5 0 0 0 437.5 400H62.5A12.5 12.5 0 0 0 50 412.5zM275 325A50 50 0 0 0 325 375H350A50 50 0 0 0 400 325V200A50 50 0 0 0 350 150H325A50 50 0 0 0 275 200V325zM325 350A25 25 0 0 1 300 325V200A25 25 0 0 1 325 175H350A25 25 0 0 1 375 200V325A25 25 0 0 1 350 350H325zM150 375A50 50 0 0 1 100 325V125A50 50 0 0 1 150 75H175A50 50 0 0 1 225 125V325A50 50 0 0 1 175 375H150zM125 325A25 25 0 0 0 150 350H175A25 25 0 0 0 200 325V125A25 25 0 0 0 175 100H150A25 25 0 0 0 125 125V325z" />
    <glyph glyph-name="animal_cat"
      unicode="&#xE025;"
      horiz-adv-x="500" d="M124.25 50H356.25C379.925 50 399.125 69.2000000000001 399.125 92.9V283.15C439.375 284.75 463.45 329.4 441.9500000000001 364.1L429.4000000000001 384.35A53 53 0 0 1 384.3500000000001 409.4500000000001H348.475V425.35A24.65 24.65 0 0 1 323.825 450A61.125 61.125 0 0 1 262.725 388.85V302.4500000000001C230.775 299.3000000000001 206.65 284.2000000000001 188.925 262.9C169.375 239.4000000000001 157.85 208.775 151 179.35C144.1 149.8 141.675 120.4 140.925 98.55C140.625 89.2000000000001 140.625 81.15 140.725 75H124.25A49.275 49.275 0 0 0 88.25 157.925L111.25 182.6A89.725 89.725 0 0 1 109.1 307.2000000000001L86.525 329.775A12.5 12.5 0 1 1 68.85 312.1L91.425 289.5250000000001A64.675 64.675 0 0 0 92.975 199.65L69.975 174.975A74.325 74.325 0 0 1 124.25 50zM323.5 425V396.95A12.5 12.5 0 0 1 336 384.45H384.35C394.05 384.45 403.05 379.45 408.1500000000001 371.2L420.725 350.925A28.05 28.05 0 0 0 396.9000000000001 308.1H386.6500000000001A12.5 12.5 0 0 1 374.1500000000001 295.6V92.9C374.1500000000001 83.025 366.1500000000001 75 356.2500000000001 75H338.3500000000001V92.9A73.3 73.3 0 0 1 265.1000000000001 166.225H239.75A12.5 12.5 0 0 1 239.75 141.225H265.075C291.75 141.225 313.375 119.6 313.375 92.9V75H165.725C165.6 80.85 165.6 88.6 165.9 97.725C166.6 118.625 168.9 146.225 175.325 173.675C181.75 201.275 192.075 227.65 208.125 246.925C223.8 265.7 245.075 278.05 275.225 278.05A12.5 12.5 0 0 1 287.725 290.55V388.85C287.725 408.7 303.7 424.825 323.475 425z" />
    <glyph glyph-name="animal_dog"
      unicode="&#xE026;"
      horiz-adv-x="500" d="M269.25 440.15C279.65 447.65 291.75 450 300 450H336.15A62.5 62.5 0 0 0 368.3 441.1L412.875 414.35A25 25 0 0 0 425 392.925V362.5A37.5 37.5 0 0 0 387.5 325H375V124.05C385.525 122.425 396.075 118.5 404.875 111.175C417.6250000000001 100.575 425 84.2499999999999 425 62.5A12.5 12.5 0 0 0 412.5 50H125A75 75 0 0 0 79.925 184.95A12.5 12.5 0 0 0 94.95 164.975A50 50 0 0 1 125 75C132.2 75 136.75 76.75 139.75 78.7499999999999A20.425 20.425 0 0 1 146.625 86.85A33.6 33.6 0 0 1 150 100V101.125L150.1 103.875A233.2500000000001 233.2500000000001 0 0 0 156.6 146.775C163.175 173.025 176.5 206.675 203.65 233.85C249.75 279.925 250 341.725 250 362.5V400C250 419.075 258.25 432.2 269.25 440.15zM273.1 327.5C269.225 296.1 257.375 252.2 221.35 216.15C198.5 193.325 186.825 164.475 180.875 140.725A208.15 208.15 0 0 1 175.075 102.7500000000001A92.325 92.325 0 0 1 175 100.5750000000001V99.175L174.9 97.4999999999999A58.6 58.6 0 0 0 168.65 75H322.975C320.475 83 315.4 91.225 306.675 95.8A40.55 40.55 0 0 1 287.5 100H262.5A12.5 12.5 0 0 0 262.5 125H287.5C291.9 125 296.05 124.65 300 124V187.5A12.5 12.5 0 0 0 325 187.5V113.8C339.5 103.35 346.175 87.8 348.7 75H398.7C396.8250000000001 83.2 393.0750000000001 88.475 388.875 91.9500000000001C382.45 97.3250000000001 373.125 100 362.5 100A12.5 12.5 0 0 0 350 112.5V337.5A12.5 12.5 0 0 0 362.5 350H387.5A12.5 12.5 0 0 1 400 362.5V392.925L355.45 419.675A37.5 37.5 0 0 1 336.15 425H300C295.75 425 289.1 423.625 283.875 419.85C279.25 416.55 275 410.925 275 400V362.5C275 360.3250000000001 275.75 356.8 277.65 354.175C279.075 352.175 281.575 350 287.5 350C293.425 350 295.925 352.2 297.35 354.175A15.475 15.475 0 0 1 300 362.5A12.5 12.5 0 0 0 325 362.5C325 356.325 323.25 347.35 317.65 339.5750000000001C311.575 331.15 301.575 325 287.5 325A40.5 40.5 0 0 0 273.1 327.5zM175 99.975L162.5 100z" />
    <glyph glyph-name="animal_rabbit_off"
      unicode="&#xE028;"
      horiz-adv-x="500" d="M71.35 446.35A12.5 12.5 0 1 1 53.65 428.65L182.575 299.75A88.075 88.075 0 0 1 164.825 296.75A62.5 62.5 0 1 1 100 201.25V177.9C99.975 148.5500000000001 123.675 124.725 153 124.725H315.85C327.6 124.725 338.45 128.55 347.25 135.025L428.625 53.6250000000001A12.5 12.5 0 0 1 446.325 71.3250000000001L71.325 446.3250000000001zM329.2 153.125C325.225 150.975 320.7 149.75 315.875 149.75H275.225V152.25C275.225 180.425 249.725 200 222.175 200H187.5A12.5 12.5 0 0 1 187.5 175H222.175C239.425 175 250.225 163.4 250.225 152.25V149.75H153.05A28.1 28.1 0 0 0 125 177.925V211.175C125 246.4250000000001 153.475 274.9500000000001 188.5 274.9500000000001H207.375L329.2 153.125zM141.45 286.375A88.85 88.85 0 0 1 101.35 226.7A37.5 37.5 0 1 0 141.425 286.375zM409.35 199.375C398.35 188.325 383.725 183.125 369.3 183.725L391.725 161.3A78.75 78.75 0 0 1 427.05 292.8250000000001L321.55 398.1500000000001A37.825 37.825 0 0 1 267.975 398.1500000000001A38.025 38.025 0 0 1 267.975 344.475L301.525 311.225A88.1 88.1 0 0 1 293.85 298.925A88.85 88.85 0 0 1 280.3999999999999 299.9500000000001H253.075L278.075 274.9500000000001H280.3999999999999C286.3499999999999 274.9500000000001 292.125 274.125 297.55 272.6L308.125 269.6250000000001L312.425 279.725C315.2 286.225 319.05 293.9000000000001 324.225 299.4250000000001L336.8 311.475L285.675 362.1250000000001A13.025 13.025 0 0 0 285.675 380.5000000000001A12.825 12.825 0 0 0 303.875 380.5000000000001V380.475L409.3749999999999 275.1750000000001A53.75 53.75 0 0 0 409.3499999999999 199.3750000000001z" />
    <glyph glyph-name="animal_rabbit"
      unicode="&#xE027;"
      horiz-adv-x="500" d="M262.8 124.75H315.8750000000001A53 53 0 0 1 365.4000000000001 158.925C387.4750000000001 157.175 410.1500000000001 164.775 427.05 181.725A78.75 78.75 0 0 1 427.05 292.8250000000001L321.5500000000001 398.1500000000001A37.825 37.825 0 0 1 267.975 398.1500000000001A38.025 38.025 0 0 1 267.975 344.475L301.5250000000001 311.225A88.1 88.1 0 0 1 293.85 298.925A88.85 88.85 0 0 1 280.4000000000001 299.9500000000001H188.5C180.275 299.9500000000001 172.325 298.8250000000001 164.775 296.75A62.5 62.5 0 1 1 100 201.25V177.9C100 148.5500000000001 123.7 124.725 153.05 124.725H262.8zM303.875 380.5V380.475L409.375 275.1750000000001A53.75 53.75 0 0 0 409.35 199.3750000000001A53.2 53.2 0 0 0 359.025 185.1750000000001L345.3 188.5000000000001L343.675 174.5000000000001C342.025 160.5250000000001 330.175 149.7500000000001 315.875 149.7500000000001H275.225V152.2500000000001C275.225 180.4250000000001 249.725 200.0000000000001 222.175 200.0000000000001H187.5A12.5 12.5 0 0 1 187.5 175.0000000000001H222.175C239.425 175.0000000000001 250.225 163.4 250.225 152.2500000000001V149.7500000000001H153.05A28.1 28.1 0 0 0 125 177.925V211.175C125 246.4250000000001 153.475 274.9500000000001 188.5 274.9500000000001H280.4000000000001C286.35 274.9500000000001 292.125 274.125 297.55 272.6L308.125 269.6250000000001L312.4250000000001 279.725C315.2000000000001 286.225 319.0500000000001 293.9000000000001 324.225 299.4250000000001L336.8 311.475L285.675 362.1250000000001A13.025 13.025 0 0 0 285.675 380.5000000000001A12.825 12.825 0 0 0 303.875 380.5000000000001zM141.425 286.375A88.85 88.85 0 0 1 101.35 226.7A37.5 37.5 0 1 0 141.425 286.375z" />
    <glyph glyph-name="animal_turtle"
      unicode="&#xE029;"
      horiz-adv-x="500" d="M227.575 399.95C190.675 399.95 165.1 386.2000000000001 147.2 365.5C129.85 345.45 120.3 319.55 113.25 296.275L106.8 275H62.5A12.5 12.5 0 0 1 50 262.5C50 235.6 62.425 209.95 82.425 196.75L71.4 169.9500000000001A32.75 32.75 0 0 1 101.7 124.7000000000001H138.25C150.95 124.7000000000001 162.5 132.0500000000001 167.9 143.525L179.65 168.525C212.5 163.975 245.775 163.975 278.625 168.525L290.375 143.525C295.775 132.025 307.3250000000001 124.7000000000001 320.025 124.7000000000001H356.225A32.75 32.75 0 0 1 386.5250000000001 169.9500000000001L374.0750000000001 200.1H416.6500000000001C433.5250000000001 200.1 450 213.1250000000001 450 231.5250000000001V250C450 278.425 425.3 299.9 396.975 299.9H345.1C337.95 322.5750000000001 327.45 346.8 309.9 365.8C290.95 386.275 264.45 399.925 227.575 399.925zM366.8 225.075L352.4 274.925H396.975C413.4000000000001 274.925 425 262.8 425 250.025V231.5C425 229.25 422.175 225.075 416.6500000000001 225.075H366.8zM352.5250000000001 186.775L363.4000000000001 160.4A7.75 7.75 0 0 0 356.225 149.675H320.025A7.75 7.75 0 0 0 313 154.15L304.1500000000001 172.975C320.45 176.425 336.625 181.05 352.5250000000001 186.775zM154.125 172.95L145.275 154.15A7.75 7.75 0 0 0 138.275 149.675H101.675A7.775 7.775 0 0 0 94.5 160.4L105.375 186.875C121.375 181.075 137.675 176.425 154.125 172.9499999999999zM90.8 222.075A51.4 51.4 0 0 0 76.15 250H99.25L90.8 222.1zM137.2000000000001 289.025C144.0750000000001 311.825 152.4250000000001 333.3250000000001 166.1 349.15C179.225 364.325 197.85 374.95 227.6 374.95C257.425 374.95 277.3 364.25 291.55 348.85C306.2000000000001 332.975 315.5 311.475 322.3 289.1L344.9500000000001 210.625A337.075 337.075 0 0 0 113.4500000000001 210.55L137.2000000000001 289.05z" />
    <glyph glyph-name="app_folder"
      unicode="&#xE02A;"
      horiz-adv-x="500" d="M125 350A25 25 0 0 0 150 375H200A25 25 0 0 0 225 350V300A25 25 0 0 0 200 275H150A25 25 0 0 0 125 300V350zM200 350H150V300H200V350zM125 200A25 25 0 0 0 150 225H200A25 25 0 0 0 225 200V150A25 25 0 0 0 200 125H150A25 25 0 0 0 125 150V200zM200 200H150V150H200V200zM300 375A25 25 0 0 1 275 350V300A25 25 0 0 1 300 275H350A25 25 0 0 1 375 300V350A25 25 0 0 1 350 375H300zM300 350H350V300H300V350zM275 200A25 25 0 0 0 300 225H350A25 25 0 0 0 375 200V150A25 25 0 0 0 350 125H300A25 25 0 0 0 275 150V200zM350 200H300V150H350V200zM125 450A75 75 0 0 1 50 375V125A75 75 0 0 1 125 50H375A75 75 0 0 1 450 125V375A75 75 0 0 1 375 450H125zM75 375A50 50 0 0 0 125 425H375A50 50 0 0 0 425 375V125A50 50 0 0 0 375 75H125A50 50 0 0 0 75 125V375z" />
    <glyph glyph-name="app_generic"
      unicode="&#xE02B;"
      horiz-adv-x="500" d="M75 362.5A62.5 62.5 0 0 0 137.5 425H362.5A62.5 62.5 0 0 0 425 362.5V137.5A62.5 62.5 0 0 0 362.5 75H137.5A62.5 62.5 0 0 0 75 137.5V362.5zM137.5 400A37.5 37.5 0 0 1 100 362.5V350H400V362.5A37.5 37.5 0 0 1 362.5 400H137.5zM400 325H100V137.5A37.5 37.5 0 0 1 137.5 100H362.5A37.5 37.5 0 0 1 400 137.5V325zM125 275A25 25 0 0 0 150 300H200A25 25 0 0 0 225 275V150A25 25 0 0 0 200 125H150A25 25 0 0 0 125 150V275zM200 275H150V150H200V275zM250 237.5A12.5 12.5 0 0 0 262.5 250H337.5A12.5 12.5 0 0 0 337.5 225H262.5A12.5 12.5 0 0 0 250 237.5zM262.5 300A12.5 12.5 0 0 1 262.5 275H362.5A12.5 12.5 0 0 1 362.5 300H262.5z" />
    <glyph glyph-name="app_recent"
      unicode="&#xE02C;"
      horiz-adv-x="500" d="M175 450A50 50 0 0 1 125 400H100A50 50 0 0 1 50 350V150A50 50 0 0 1 100 100H125A50 50 0 0 1 175 50H325A50 50 0 0 1 375 100H400A50 50 0 0 1 450 150V350A50 50 0 0 1 400 400H375A50 50 0 0 1 325 450H175zM375 375H400A25 25 0 0 0 425 350V150A25 25 0 0 0 400 125H375V375zM125 125H100A25 25 0 0 0 75 150V350A25 25 0 0 0 100 375H125V125zM150 400A25 25 0 0 0 175 425H325A25 25 0 0 0 350 400V100A25 25 0 0 0 325 75H175A25 25 0 0 0 150 100V400z" />
    <glyph glyph-name="app_title"
      unicode="&#xE02D;"
      horiz-adv-x="500" d="M100 350A75 75 0 0 0 175 425H325A75 75 0 0 0 400 350V200A75 75 0 0 0 325 125H175A75 75 0 0 0 100 200V350zM175 400A50 50 0 0 1 125 350V200A50 50 0 0 1 175 150H325A50 50 0 0 1 375 200V350A50 50 0 0 1 325 400H175zM100 62.5A12.5 12.5 0 0 0 112.5 75H387.5A12.5 12.5 0 0 0 387.5 50H112.5A12.5 12.5 0 0 0 100 62.5z" />
    <glyph glyph-name="approvals_app"
      unicode="&#xE02E;"
      horiz-adv-x="500" d="M246.35 471.35A12.5 12.5 0 1 1 228.65 453.65L257.325 425H237.5A187.5 187.5 0 1 1 425 237.5A12.5 12.5 0 0 1 400 237.5A162.5 162.5 0 1 0 237.5 400H257.325L228.6500000000001 371.35A12.5 12.5 0 1 1 246.35 353.65L296.35 403.65A12.5 12.5 0 0 1 296.35 421.35L246.35 471.35zM333.675 321.5A12.5 12.5 0 0 0 334 303.8250000000001L237.75 203.825A12.5 12.5 0 0 0 219.75 203.825L178.5 246.7A12.5 12.5 0 0 0 196.5 264.025L228.75 230.525L316 321.175A12.5 12.5 0 0 0 333.675 321.5z" />
    <glyph glyph-name="apps_add_in"
      unicode="&#xE030;"
      horiz-adv-x="500" d="M375 425A12.5 12.5 0 0 1 350 425V375H300A12.5 12.5 0 0 1 300 350H350V300A12.5 12.5 0 0 1 375 300V350H425A12.5 12.5 0 0 1 425 375H375V425zM112.5 75A37.5 37.5 0 0 0 75 112.5V387.5A37.5 37.5 0 0 0 112.5 425H225A37.5 37.5 0 0 0 262.5 387.5V262.5H387.5A37.5 37.5 0 0 0 425 225V112.5A37.5 37.5 0 0 0 387.5 75H112.5zM262.5 237.5V100H387.5A12.5 12.5 0 0 1 400 112.5V225A12.5 12.5 0 0 1 387.5 237.5H262.5zM237.5 100V237.5H100V112.5A12.5 12.5 0 0 1 112.5 100H237.5zM237.5 387.5A12.5 12.5 0 0 1 225 400H112.5A12.5 12.5 0 0 1 100 387.5V262.5H237.5V387.5z" />
    <glyph glyph-name="apps_list_detail"
      unicode="&#xE032;"
      horiz-adv-x="500" d="M87.5 400A37.5 37.5 0 0 1 50 362.5V312.5A37.5 37.5 0 0 1 87.5 275H137.5A37.5 37.5 0 0 1 175 312.5V362.5A37.5 37.5 0 0 1 137.5 400H87.5zM75 362.5A12.5 12.5 0 0 0 87.5 375H137.5A12.5 12.5 0 0 0 150 362.5V312.5A12.5 12.5 0 0 0 137.5 300H87.5A12.5 12.5 0 0 0 75 312.5V362.5zM237.5 375A12.5 12.5 0 0 1 237.5 350H437.5A12.5 12.5 0 0 1 437.5 375H237.5zM237.5 325A12.5 12.5 0 0 1 237.5 300H387.5A12.5 12.5 0 0 1 387.5 325H237.5zM87.5 225A37.5 37.5 0 0 1 50 187.5V137.5A37.5 37.5 0 0 1 87.5 100H137.5A37.5 37.5 0 0 1 175 137.5V187.5A37.5 37.5 0 0 1 137.5 225H87.5zM75 187.5A12.5 12.5 0 0 0 87.5 200H137.5A12.5 12.5 0 0 0 150 187.5V137.5A12.5 12.5 0 0 0 137.5 125H87.5A12.5 12.5 0 0 0 75 137.5V187.5zM237.5 200A12.5 12.5 0 0 1 237.5 175H437.5A12.5 12.5 0 0 1 437.5 200H237.5zM237.5 150A12.5 12.5 0 0 1 237.5 125H387.5A12.5 12.5 0 0 1 387.5 150H237.5z" />
    <glyph glyph-name="apps_list"
      unicode="&#xE031;"
      horiz-adv-x="500" d="M50 412.5A37.5 37.5 0 0 0 87.5 450H112.5A37.5 37.5 0 0 0 150 412.5V387.5A37.5 37.5 0 0 0 112.5 350H87.5A37.5 37.5 0 0 0 50 387.5V412.5zM87.5 425A12.5 12.5 0 0 1 75 412.5V387.5A12.5 12.5 0 0 1 87.5 375H112.5A12.5 12.5 0 0 1 125 387.5V412.5A12.5 12.5 0 0 1 112.5 425H87.5zM50 262.5A37.5 37.5 0 0 0 87.5 300H112.5A37.5 37.5 0 0 0 150 262.5V237.5A37.5 37.5 0 0 0 112.5 200H87.5A37.5 37.5 0 0 0 50 237.5V262.5zM87.5 275A12.5 12.5 0 0 1 75 262.5V237.5A12.5 12.5 0 0 1 87.5 225H112.5A12.5 12.5 0 0 1 125 237.5V262.5A12.5 12.5 0 0 1 112.5 275H87.5zM50 112.5A37.5 37.5 0 0 0 87.5 150H112.5A37.5 37.5 0 0 0 150 112.5V87.5A37.5 37.5 0 0 0 112.5 50H87.5A37.5 37.5 0 0 0 50 87.5V112.5zM87.5 125A12.5 12.5 0 0 1 75 112.5V87.5A12.5 12.5 0 0 1 87.5 75H112.5A12.5 12.5 0 0 1 125 87.5V112.5A12.5 12.5 0 0 1 112.5 125H87.5zM200 387.5A12.5 12.5 0 0 0 212.5 400H437.5A12.5 12.5 0 0 0 437.5 375H212.5A12.5 12.5 0 0 0 200 387.5zM200 237.5A12.5 12.5 0 0 0 212.5 250H437.5A12.5 12.5 0 0 0 437.5 225H212.5A12.5 12.5 0 0 0 200 237.5zM200 87.5A12.5 12.5 0 0 0 212.5 100H437.5A12.5 12.5 0 0 0 437.5 75H212.5A12.5 12.5 0 0 0 200 87.5z" />
    <glyph glyph-name="apps"
      unicode="&#xE02F;"
      horiz-adv-x="500" d="M112.5 75A37.5 37.5 0 0 0 75.175 108.875L75 112.475V387.475A37.5 37.5 0 0 0 108.9 424.8L112.5 425H225A37.5 37.5 0 0 0 262.325 391.125L262.5 387.5V381.15L317.225 437.875A37.5 37.5 0 0 0 367.4 441.325L370.3 438.8L439.225 370.675A37.5 37.5 0 0 0 442 320.4L439.425 317.5L381.65 262.5H387.5A37.5 37.5 0 0 0 424.825 228.6L425 225V112.5A37.5 37.5 0 0 0 391.125 75.175L387.5 75H112.5zM237.5 237.5H100V112.5A12.5 12.5 0 0 1 108.15 100.75L110.25 100.175L112.5 99.975H237.5V237.475zM387.5 237.5H262.5V100H387.5A12.5 12.5 0 0 1 399.8 110.25L400 112.5V225A12.5 12.5 0 0 1 389.75 237.275L387.5 237.475zM262.5 307.25V262.5H307.25L262.5 307.25zM225 400H112.5A12.5 12.5 0 0 1 100.2 389.725L100 387.475V262.475H237.5V387.475A12.5 12.5 0 0 1 229.35 399.2L227.25 399.75L225 399.975zM353.05 420.65A12.575 12.575 0 0 1 336.925 421.975L335.225 420.475L269.8250000000001 352.65A12.5 12.5 0 0 1 268.4000000000001 337.075L269.975 335.125L335.375 269.75A12.5 12.5 0 0 1 350.875 268L352.825 269.525L421.775 335.2A12.5 12.5 0 0 1 423.125 351.15L421.6499999999999 352.875L353.0499999999999 420.65z" />
    <glyph glyph-name="archive_arrow_back"
      unicode="&#xE034;"
      horiz-adv-x="500" d="M212.5 250A12.5 12.5 0 0 1 212.5 225H256.425C264.25 234.5 273.35 242.9 283.425 250H212.5zM150 100H230.175C232.6500000000001 91.275 235.9250000000001 82.925 240.0000000000001 75H150A75 75 0 0 0 75 150V304.2000000000001A43.75 43.75 0 0 0 50 343.75V381.25C50 405.4 69.6 425 93.75 425H406.25C430.4000000000001 425 450 405.4 450 381.25V343.75C450 326.3 439.7750000000001 311.25 425 304.2000000000001V260A136.625 136.625 0 0 1 400 269.8250000000001V300H100V150A50 50 0 0 1 150 100zM93.75 400A18.75 18.75 0 0 1 75 381.25V343.75C75 333.4 83.4 325 93.75 325H406.25A18.75 18.75 0 0 1 425 343.75V381.25A18.75 18.75 0 0 1 406.25 400H93.75zM362.5 25A112.5 112.5 0 1 1 362.5 250A112.5 112.5 0 0 1 362.5 25zM340.1 184.9L317.675 162.5H356.25A68.75 68.75 0 0 0 425 93.75V87.5A12.5 12.5 0 0 0 400 87.5V93.75A43.75 43.75 0 0 1 356.25 137.5H317.675L340.1 115.1A12.5 12.5 0 0 0 322.4000000000001 97.4L278.6 141.225A12.475 12.475 0 0 0 278.6500000000001 158.85L322.4000000000001 202.6A12.5 12.5 0 0 0 340.1 184.9z" />
    <glyph glyph-name="archive_multiple"
      unicode="&#xE035;"
      horiz-adv-x="500" d="M187.5 300A12.5 12.5 0 0 1 187.5 275H262.5A12.5 12.5 0 0 1 262.5 300H187.5zM87.5 450A37.5 37.5 0 0 1 50 412.5V362.5A37.5 37.5 0 0 1 75.175 327.0750000000001A12.575 12.575 0 0 1 75 325V187.5A87.5 87.5 0 0 1 162.5 100H287.5A87.5 87.5 0 0 1 375 187.5V325A12.6 12.6 0 0 1 374.825 327.0750000000001A37.5 37.5 0 0 1 400 362.5V412.5A37.5 37.5 0 0 1 362.5 450H87.5zM100 187.5V325H350V187.5A62.5 62.5 0 0 0 287.5 125H162.5A62.5 62.5 0 0 0 100 187.5zM75 412.5A12.5 12.5 0 0 0 87.5 425H362.5A12.5 12.5 0 0 0 375 412.5V362.5A12.5 12.5 0 0 0 362.5 350H87.5A12.5 12.5 0 0 0 75 362.5V412.5zM212.5 50A87.225 87.225 0 0 0 151.25 75H312.5A87.5 87.5 0 0 1 400 162.5V322.875A37.5 37.5 0 0 0 425 287.5V162.5A112.5 112.5 0 0 0 312.5 50H212.5z" />
    <glyph glyph-name="archive_settings"
      unicode="&#xE036;"
      horiz-adv-x="500" d="M50 381.25C50 405.4 69.6 425 93.75 425H406.25C430.4000000000001 425 450 405.4 450 381.25V343.75C450 326.3 439.7750000000001 311.25 425 304.2000000000001V260A136.625 136.625 0 0 1 400 269.8250000000001V300H100V150A50 50 0 0 1 150 100H230.175C232.6500000000001 91.275 235.9250000000001 82.925 240.0000000000001 75H150A75 75 0 0 0 75 150V304.2000000000001A43.75 43.75 0 0 0 50 343.75V381.25zM93.75 400A18.75 18.75 0 0 1 75 381.25V343.75C75 333.4 83.4 325 93.75 325H406.25A18.75 18.75 0 0 1 425 343.75V381.25A18.75 18.75 0 0 1 406.25 400H93.75zM212.5 250H283.425C273.35 242.9 264.25 234.5 256.425 225H212.5A12.5 12.5 0 0 0 212.5 250zM301.675 213.925A50 50 0 0 0 265.9 151.975L254.375 149.025A117.55 117.55 0 0 1 254.625 123.625L263.375 121.55A50 50 0 0 0 299.7749999999999 58.575L296.5999999999999 48.025C303.0249999999999 42.925 310.025 38.575 317.475 35.075L325.5999999999999 43.675A50 50 0 0 0 398.3499999999999 43.625L406.7749999999999 34.675C414.075 38.0500000000001 420.975 42.225 427.325 47.1250000000001L423.3999999999999 61.0250000000001A50 50 0 0 0 459.175 123.0000000000001L470.675 125.9250000000001A117.55 117.55 0 0 1 470.4249999999999 151.35L461.725 153.4000000000001A50 50 0 0 0 425.325 216.4L428.475 226.9250000000001A108 108 0 0 1 407.6 239.9000000000001L399.475 231.3000000000001A50 50 0 0 0 326.725 231.3250000000001L318.3 240.2750000000001A107.9 107.9 0 0 1 297.775 227.8500000000001L301.675 213.9250000000001zM362.5 112.5A25 25 0 1 0 362.5 162.5A25 25 0 0 0 362.5 112.5z" />
    <glyph glyph-name="archive"
      unicode="&#xE033;"
      horiz-adv-x="500" d="M212.5 250A12.5 12.5 0 0 1 212.5 225H287.5A12.5 12.5 0 0 1 287.5 250H212.5zM50 381.25C50 405.4 69.6 425 93.75 425H406.25C430.4000000000001 425 450 405.4 450 381.25V343.75C450 326.3 439.7750000000001 311.25 425 304.2000000000001V150A75 75 0 0 0 350 75H150A75 75 0 0 0 75 150V304.2000000000001A43.75 43.75 0 0 0 50 343.75V381.25zM93.75 400A18.75 18.75 0 0 1 75 381.25V343.75C75 333.4 83.4 325 93.75 325H406.25A18.75 18.75 0 0 1 425 343.75V381.25A18.75 18.75 0 0 1 406.25 400H93.75zM100 300V150A50 50 0 0 1 150 100H350A50 50 0 0 1 400 150V300H100z" />
    <glyph glyph-name="arrow_autofit_content"
      unicode="&#xE037;"
      horiz-adv-x="500" d="M133.85 408.85A12.5 12.5 0 0 0 133.85 391.15L117.675 375H187.5A12.5 12.5 0 0 0 187.5 350H117.675L133.85 333.85A12.5 12.5 0 1 0 116.15 316.15L78.65 353.65A12.5 12.5 0 0 0 78.65 371.35L116.15 408.85A12.5 12.5 0 0 0 133.85 408.85zM137.5 275A62.5 62.5 0 0 1 75 212.5V137.5A62.5 62.5 0 0 1 137.5 75H362.5A62.5 62.5 0 0 1 425 137.5V212.5A62.5 62.5 0 0 1 362.5 275H137.5zM100 212.5A37.5 37.5 0 0 0 137.5 250H362.5A37.5 37.5 0 0 0 400 212.5V137.5A37.5 37.5 0 0 0 362.5 100H137.5A37.5 37.5 0 0 0 100 137.5V212.5zM150 187.5A12.5 12.5 0 0 1 150 162.5H350A12.5 12.5 0 0 1 350 187.5H150zM366.1500000000001 391.1500000000001A12.5 12.5 0 0 0 383.85 408.85L421.35 371.35A12.5 12.5 0 0 0 421.35 353.6500000000001L383.85 316.1500000000001A12.5 12.5 0 0 0 366.15 333.85L382.325 350H312.5A12.5 12.5 0 0 0 312.5 375H382.325L366.15 391.15z" />
    <glyph glyph-name="arrow_autofit_down"
      unicode="&#xE038;"
      horiz-adv-x="500" d="M403.55 120.25L375.05 90.75V437.5A12.5 12.5 0 1 1 350.05 437.5V90.6499999999999L321.5 120.2249999999999A12.5 12.5 0 1 1 303.5 102.8749999999999L349.025 55.725A18.75 18.75 0 0 1 376.025 55.725L421.5249999999999 102.8749999999999A12.5 12.5 0 1 1 403.525 120.2249999999999zM125 75A50 50 0 0 0 75 125V375A50 50 0 0 0 125 425H287.5A12.5 12.5 0 0 0 287.5 400H125A25 25 0 0 1 100 375V125A25 25 0 0 1 125 100H237.5A12.5 12.5 0 1 0 237.5 75H125z" />
    <glyph glyph-name="arrow_autofit_height_dotted"
      unicode="&#xE03A;"
      horiz-adv-x="500" d="M403.55 379.75L362.5 422.25L321.475 379.75A12.5 12.5 0 0 0 303.475 397.125L349 444.2750000000001A18.75 18.75 0 0 0 376 444.2750000000001L421.5 397.125A12.5 12.5 0 1 0 403.5 379.7750000000001zM125 425A50 50 0 0 1 75 375V125A50 50 0 0 1 125 75H237.5A12.5 12.5 0 0 1 237.5 100H125A25 25 0 0 0 100 125V375A25 25 0 0 0 125 400H237.5A12.5 12.5 0 0 1 237.5 425H125zM362.575 375A12.5 12.5 0 0 0 375.075 362.5V325A12.5 12.5 0 1 0 350.075 325V362.5A12.5 12.5 0 0 0 362.575 375zM375.075 175A12.5 12.5 0 1 1 350.075 175V137.5A12.5 12.5 0 0 1 375.075 137.5V175zM362.575 275A12.5 12.5 0 0 0 375.075 262.5V237.5A12.5 12.5 0 1 0 350.075 237.5V262.5A12.5 12.5 0 0 0 362.575 275zM403.55 120.25L362.525 77.75L321.5 120.25A12.5 12.5 0 1 1 303.5 102.8749999999999L349.025 55.725A18.75 18.75 0 0 1 376.025 55.725L421.5249999999999 102.8749999999999A12.5 12.5 0 1 1 403.525 120.2249999999999z" />
    <glyph glyph-name="arrow_autofit_height"
      unicode="&#xE039;"
      horiz-adv-x="500" d="M375.075 409.25L403.55 379.75A12.5 12.5 0 1 1 421.55 397.125L376 444.275A18.75 18.75 0 0 1 349.025 444.275L303.525 397.125A12.5 12.5 0 1 1 321.5 379.775L350.075 409.35V312.5A12.5 12.5 0 0 1 375.075 312.5V409.25zM75 375A50 50 0 0 0 125 425H237.5A12.5 12.5 0 0 0 237.5 400H125A25 25 0 0 1 100 375V125A25 25 0 0 1 125 100H237.5A12.5 12.5 0 0 0 237.5 75H125A50 50 0 0 0 75 125V375zM403.55 120.25L375.05 90.75V187.5A12.5 12.5 0 1 1 350.05 187.5V90.65L321.5 120.225A12.5 12.5 0 1 1 303.5 102.8750000000001L349.025 55.7250000000001A18.75 18.75 0 0 1 376.025 55.7250000000001L421.5249999999999 102.8750000000001A12.5 12.5 0 1 1 403.525 120.225z" />
    <glyph glyph-name="arrow_autofit_up"
      unicode="&#xE03B;"
      horiz-adv-x="500" d="M403.55 379.75L375.05 409.25V62.5A12.5 12.5 0 1 0 350.05 62.5V409.35L321.5 379.775A12.5 12.5 0 0 0 303.5 397.125L349.025 444.275A18.75 18.75 0 0 0 376.025 444.275L421.5249999999999 397.125A12.5 12.5 0 1 0 403.525 379.775zM125 425A50 50 0 0 1 75 375V125A50 50 0 0 1 125 75H287.5A12.5 12.5 0 0 1 287.5 100H125A25 25 0 0 0 100 125V375A25 25 0 0 0 125 400H237.5A12.5 12.5 0 0 1 237.5 425H125z" />
    <glyph glyph-name="arrow_autofit_width_dotted"
      unicode="&#xE03D;"
      horiz-adv-x="500" d="M379.8 96.45L422.3 137.475L379.8 178.5A12.5 12.5 0 0 0 397.15 196.5000000000001L444.3 150.975A18.75 18.75 0 0 0 444.3 123.975L397.15 78.4750000000001A12.5 12.5 0 1 0 379.8 96.475zM425 375A50 50 0 0 1 375 425H125A50 50 0 0 1 75 375V262.5A12.5 12.5 0 0 1 100 262.5V375A25 25 0 0 0 125 400H375A25 25 0 0 0 400 375V262.5A12.5 12.5 0 1 1 425 262.5V375zM375 137.425A12.5 12.5 0 0 0 362.5 124.925H325A12.5 12.5 0 1 0 325 149.925H362.5A12.5 12.5 0 0 0 375 137.425zM175 124.925A12.5 12.5 0 1 1 175 149.925H137.5A12.5 12.5 0 0 1 137.5 124.925H175zM275 137.425A12.5 12.5 0 0 0 262.5 124.925H237.5A12.5 12.5 0 1 0 237.5 149.925H262.5A12.5 12.5 0 0 0 275 137.425zM120.25 96.45L77.75 137.5L120.25 178.525A12.5 12.5 0 0 1 102.875 196.525L55.75 150.975A18.75 18.75 0 0 1 55.75 123.975L102.9 78.475A12.5 12.5 0 1 1 120.25 96.475z" />
    <glyph glyph-name="arrow_autofit_width"
      unicode="&#xE03C;"
      horiz-adv-x="500" d="M409.275 124.925L379.775 96.45A12.5 12.5 0 1 1 397.15 78.4500000000001L444.3 124A18.75 18.75 0 0 1 444.3 150.975L397.15 196.475A12.5 12.5 0 1 1 379.8 178.5000000000001L409.375 149.9250000000001H312.525A12.5 12.5 0 1 1 312.525 124.9250000000001H409.275zM375.025 425A50 50 0 0 0 425.0249999999999 375V262.5A12.5 12.5 0 0 0 400.0249999999999 262.5V375A25 25 0 0 1 375.0249999999999 400H125.025A25 25 0 0 1 100.025 375V262.5A12.5 12.5 0 0 0 75.025 262.5V375A50 50 0 0 0 125.025 425H375.0249999999999zM120.275 96.45L90.775 124.9500000000001H187.5A12.5 12.5 0 1 1 187.5 149.9500000000001H90.675L120.25 178.5A12.5 12.5 0 0 1 102.9 196.5000000000001L55.75 150.975A18.75 18.75 0 0 1 55.75 123.975L102.9 78.475A12.5 12.5 0 1 1 120.25 96.475z" />
    <glyph glyph-name="arrow_between_down"
      unicode="&#xE03E;"
      horiz-adv-x="500" d="M100 450A12.5 12.5 0 0 1 75 450V437.5A37.5 37.5 0 0 1 112.5 400H362.5A37.5 37.5 0 0 1 400 437.5V450A12.5 12.5 0 0 1 375 450V437.5A12.5 12.5 0 0 0 362.5 425H112.5A12.5 12.5 0 0 0 100 437.5V450zM237.5 375A12.5 12.5 0 0 0 250 362.5V167.675L341.1500000000001 258.85A12.5 12.5 0 0 0 358.85 241.1500000000001L246.35 128.65A12.5 12.5 0 0 0 228.6500000000001 128.65L116.15 241.1500000000001A12.5 12.5 0 0 0 133.85 258.85L225 167.675V362.5A12.5 12.5 0 0 0 237.5 375zM75 62.5A37.5 37.5 0 0 0 112.5 100H362.5A37.5 37.5 0 0 0 400 62.5V50A12.5 12.5 0 0 0 375 50V62.5A12.5 12.5 0 0 1 362.5 75H112.5A12.5 12.5 0 0 1 100 62.5V50A12.5 12.5 0 0 0 75 50V62.5z" />
    <glyph glyph-name="arrow_between_up"
      unicode="&#xE03F;"
      horiz-adv-x="500" d="M100 50A12.5 12.5 0 0 0 75 50V62.5A37.5 37.5 0 0 0 112.5 100H362.5A37.5 37.5 0 0 0 400 62.5V50A12.5 12.5 0 0 0 375 50V62.5A12.5 12.5 0 0 1 362.5 75H112.5A12.5 12.5 0 0 1 100 62.5V50zM237.5 125A12.5 12.5 0 0 1 250 137.5V332.3250000000001L341.1500000000001 241.1500000000001A12.5 12.5 0 0 1 358.85 258.85L246.35 371.35A12.5 12.5 0 0 1 228.6500000000001 371.35L116.15 258.85A12.5 12.5 0 0 1 133.85 241.1500000000001L225 332.3250000000001V137.5A12.5 12.5 0 0 1 237.5 125zM75 437.5A37.5 37.5 0 0 1 112.5 400H362.5A37.5 37.5 0 0 1 400 437.5V450A12.5 12.5 0 0 1 375 450V437.5A12.5 12.5 0 0 0 362.5 425H112.5A12.5 12.5 0 0 0 100 437.5V450A12.5 12.5 0 0 1 75 450V437.5z" />
    <glyph glyph-name="arrow_bidirectional_up_down"
      unicode="&#xE040;"
      horiz-adv-x="500" d="M158.85 316.15A12.5 12.5 0 1 0 141.15 333.85L228.6500000000001 421.35A12.5 12.5 0 0 0 246.35 421.35L333.85 333.85A12.5 12.5 0 0 0 316.1500000000001 316.15L250 382.325V117.675L316.1500000000001 183.85A12.5 12.5 0 0 0 333.85 166.15L246.35 78.65A12.5 12.5 0 0 0 228.6500000000001 78.65L141.15 166.15A12.5 12.5 0 0 0 158.85 183.85L225 117.675V382.325L158.85 316.15z" />
    <glyph glyph-name="arrow_bounce"
      unicode="&#xE041;"
      horiz-adv-x="500" d="M62.5 350A12.5 12.5 0 0 1 50 337.5V162.5A12.5 12.5 0 0 1 75 162.5V307.3250000000001L253.6500000000001 128.65A12.5 12.5 0 0 1 271.35 128.65L446.35 303.6500000000001A12.5 12.5 0 0 1 428.6500000000001 321.35L262.5 155.175L92.675 325H237.5A12.5 12.5 0 0 1 237.5 350H62.5z" />
    <glyph glyph-name="arrow_circle_down_double"
      unicode="&#xE043;"
      horiz-adv-x="500" d="M225 194.825L183.85 153.65A12.5 12.5 0 0 0 166.15 153.65L125 194.825A12.5 12.5 0 1 0 142.675 212.5L162.5 192.675V337.5A12.5 12.5 0 0 0 187.5 337.5V192.675L207.325 212.5A12.5 12.5 0 1 0 225 194.825zM250 50A200 200 0 1 1 250 450A200 200 0 0 1 250 50zM425 250A175 175 0 1 0 75 250A175 175 0 0 0 425 250zM333.85 153.65L375 194.825A12.5 12.5 0 1 1 357.325 212.5L337.5 192.675V337.5A12.5 12.5 0 0 1 312.5 337.5V192.675L292.675 212.5A12.5 12.5 0 1 1 275 194.825L316.1500000000001 153.65A12.5 12.5 0 0 1 333.85 153.65z" />
    <glyph glyph-name="arrow_circle_down_right"
      unicode="&#xE044;"
      horiz-adv-x="500" d="M321.2750000000001 178.6A12.475 12.475 0 0 0 312.5 175H187.5A12.5 12.5 0 0 0 187.5 200H282.325L178.65 303.65A12.5 12.5 0 1 0 196.35 321.35L300 217.675V312.5A12.5 12.5 0 0 0 325 312.5V187.5A12.5 12.5 0 0 0 321.4 178.725L321.275 178.6zM250 50A200 200 0 1 1 250 450A200 200 0 0 1 250 50zM425 250A175 175 0 1 0 75 250A175 175 0 0 0 425 250z" />
    <glyph glyph-name="arrow_circle_down_split"
      unicode="&#xE045;"
      horiz-adv-x="500" d="M219.825 189.65L183.825 153.65A12.5 12.5 0 0 0 166.15 153.65L130.175 189.65A12.5 12.5 0 0 0 147.85 207.3250000000001L162.5 192.675V287.5A12.5 12.5 0 0 0 175 300H237.5V362.5A12.5 12.5 0 0 0 262.5 362.5V300H325A12.5 12.5 0 0 0 337.5 287.5V192.675L352.1500000000001 207.3250000000001A12.5 12.5 0 0 0 369.8250000000001 189.65L333.8250000000001 153.65A12.5 12.5 0 0 0 316.1500000000001 153.65L280.175 189.65A12.5 12.5 0 0 0 297.85 207.3250000000001L312.5000000000001 192.675V275H187.5000000000001V192.675L202.1500000000001 207.3250000000001A12.5 12.5 0 1 0 219.8250000000001 189.65zM250 50A200 200 0 1 1 250 450A200 200 0 0 1 250 50zM425 250A175 175 0 1 0 75 250A175 175 0 0 0 425 250z" />
    <glyph glyph-name="arrow_circle_down_up"
      unicode="&#xE046;"
      horiz-adv-x="500" d="M183.85 153.65L225 194.825A12.5 12.5 0 1 1 207.325 212.5L187.5 192.675V337.5A12.5 12.5 0 0 1 162.5 337.5V192.675L142.675 212.5A12.5 12.5 0 1 1 125 194.825L166.15 153.65A12.5 12.5 0 0 1 183.85 153.65zM375 305.175L333.85 346.35A12.5 12.5 0 0 1 316.15 346.35L275 305.175A12.5 12.5 0 1 1 292.675 287.5L312.5 307.3250000000001V162.5A12.5 12.5 0 1 1 337.5 162.5V307.3250000000001L357.325 287.5A12.5 12.5 0 1 1 375 305.175zM450 250A200 200 0 1 0 50 250A200 200 0 0 0 450 250zM250 75A175 175 0 1 1 250 425A175 175 0 0 1 250 75z" />
    <glyph glyph-name="arrow_circle_down"
      unicode="&#xE042;"
      horiz-adv-x="500" d="M333.85 228.6500000000001L258.85 153.65A12.5 12.5 0 0 0 241.15 153.65L166.15 228.6500000000001A12.5 12.5 0 0 0 183.85 246.35L237.5 192.675V337.5A12.5 12.5 0 0 0 262.5 337.5V192.675L316.1500000000001 246.35A12.5 12.5 0 0 0 333.85 228.6500000000001zM250 50A200 200 0 1 1 250 450A200 200 0 0 1 250 50zM425 250A175 175 0 1 0 75 250A175 175 0 0 0 425 250z" />
    <glyph glyph-name="arrow_circle_left"
      unicode="&#xE047;"
      horiz-adv-x="500" d="M228.6500000000001 166.15L153.65 241.1500000000001A12.5 12.5 0 0 0 153.65 258.85L228.6500000000001 333.85A12.5 12.5 0 1 0 246.35 316.1500000000001L192.675 262.5H337.5A12.5 12.5 0 0 0 337.5 237.5H192.675L246.35 183.85A12.5 12.5 0 0 0 228.65 166.15zM50 250A200 200 0 1 1 450 250A200 200 0 0 1 50 250zM250 75A175 175 0 1 0 250 425A175 175 0 0 0 250 75z" />
    <glyph glyph-name="arrow_circle_right"
      unicode="&#xE048;"
      horiz-adv-x="500" d="M271.35 166.15L346.35 241.1500000000001A12.5 12.5 0 0 1 346.35 258.85L271.35 333.85A12.5 12.5 0 0 1 253.65 316.1500000000001L307.325 262.5H162.5A12.5 12.5 0 0 1 162.5 237.5H307.325L253.65 183.85A12.5 12.5 0 0 1 271.35 166.15zM450 250A200 200 0 1 0 50 250A200 200 0 0 0 450 250zM250 75A175 175 0 1 1 250 425A175 175 0 0 1 250 75z" />
    <glyph glyph-name="arrow_circle_up_left"
      unicode="&#xE04A;"
      horiz-adv-x="500" d="M178.725 321.4A12.45 12.45 0 0 0 187.5 325H312.5A12.5 12.5 0 0 0 312.5 300H217.675L321.35 196.35A12.5 12.5 0 0 0 303.6500000000001 178.65L200 282.325V187.5A12.5 12.5 0 0 0 175 187.5V312.5A12.45 12.45 0 0 0 178.6 321.275L178.725 321.4zM250 450A200 200 0 1 1 250 50A200 200 0 0 1 250 450zM75 250A175 175 0 1 0 425 250A175 175 0 0 0 75 250z" />
    <glyph glyph-name="arrow_circle_up"
      unicode="&#xE049;"
      horiz-adv-x="500" d="M166.15 271.35L241.1500000000001 346.35A12.5 12.5 0 0 0 258.85 346.35L333.85 271.35A12.5 12.5 0 0 0 316.1500000000001 253.65L262.5 307.3250000000001V162.5A12.5 12.5 0 0 0 237.5 162.5V307.3250000000001L183.85 253.6500000000001A12.5 12.5 0 0 0 166.15 271.35zM250 450A200 200 0 1 1 250 50A200 200 0 0 1 250 450zM75 250A175 175 0 1 0 425 250A175 175 0 0 0 75 250z" />
    <glyph glyph-name="arrow_clockwise_dashes"
      unicode="&#xE04C;"
      horiz-adv-x="500" d="M203.3 444.5A200.5 200.5 0 0 0 296.7 444.5A12.5 12.5 0 0 0 290.875 420.2A175.5 175.5 0 0 1 209.125 420.2A12.5 12.5 0 1 0 203.3 444.525zM162.675 416.45A12.5 12.5 0 0 0 158.55 399.275A175.975 175.975 0 0 1 100.75 341.4500000000001A12.5 12.5 0 0 0 79.45 354.525A200.975 200.975 0 0 0 145.5 420.5A12.5 12.5 0 0 0 162.7 416.4zM354.5250000000001 420.575A12.5 12.5 0 1 1 341.4500000000001 399.275A176 176 0 0 0 393.625 350H312.5A12.5 12.5 0 0 1 312.5 325H412.5A12.5 12.5 0 0 1 425 337.5V437.5A12.5 12.5 0 0 1 400 437.5V382.3A200.875 200.875 0 0 1 354.5 420.55zM70.55 305.9500000000001A12.5 12.5 0 0 0 79.8 290.875A175.5 175.5 0 0 1 79.8 209.125A12.5 12.5 0 0 0 55.475 203.3A200.5 200.5 0 0 0 55.475 296.7000000000001A12.5 12.5 0 0 0 70.55 305.9500000000001zM450 250V262.5A12.5 12.5 0 0 1 425 262.5V250A175.5 175.5 0 0 0 420.2 209.125A12.5 12.5 0 1 1 444.525 203.3C448.1 218.3 450 233.925 450 250zM83.575 162.675A12.5 12.5 0 0 0 100.75 158.55A175.95 175.95 0 0 1 158.55 100.75A12.5 12.5 0 1 0 145.475 79.4500000000001A200.95 200.95 0 0 0 79.475 145.475A12.5 12.5 0 0 0 83.575 162.675zM420.55 145.475A12.5 12.5 0 0 1 399.25 158.55A175.925 175.925 0 0 0 341.425 100.75A12.5 12.5 0 0 1 354.5249999999999 79.4500000000001A200.9250000000001 200.9250000000001 0 0 1 420.525 145.475zM194.05 70.55A12.5 12.5 0 0 0 209.125 79.8A175.5 175.5 0 0 1 290.875 79.8A12.5 12.5 0 1 0 296.7 55.475A200.5 200.5 0 0 0 203.3 55.475A12.5 12.5 0 0 0 194.05 70.5500000000001z" />
    <glyph glyph-name="arrow_clockwise"
      unicode="&#xE04B;"
      horiz-adv-x="500" d="M76.65 273.75A175 175 0 0 0 390.5750000000001 354.25L393.725 350H312.5A12.5 12.5 0 1 1 312.5 325H412.5A12.5 12.5 0 0 1 425 337.5V437.45A12.5 12.5 0 0 1 400 437.45V382.275A200 200 0 1 1 449.6500000000001 262.9A12.5 12.5 0 0 1 424.7 261.3A175 175 0 1 0 76.65 273.75z" />
    <glyph glyph-name="arrow_collapse_all"
      unicode="&#xE04D;"
      horiz-adv-x="500" d="M50 387.5A12.5 12.5 0 0 0 62.5 400H437.5A12.5 12.5 0 0 0 437.5 375H62.5A12.5 12.5 0 0 0 50 387.5zM128.65 321.35A12.5 12.5 0 0 0 146.35 321.35L208.85 258.85A12.5 12.5 0 0 0 191.15 241.15L150 282.325V112.5A12.5 12.5 0 0 0 125 112.5V282.325L83.85 241.15A12.5 12.5 0 0 0 66.15 258.85L128.65 321.35zM437.5 300H262.5A12.5 12.5 0 0 0 262.5 325H437.5A12.5 12.5 0 0 0 437.5 300z" />
    <glyph glyph-name="arrow_counterclockwise_dashes"
      unicode="&#xE04F;"
      horiz-adv-x="500" d="M296.7 444.5A200.5 200.5 0 0 1 203.3 444.5A12.5 12.5 0 1 1 209.125 420.2A175.5 175.5 0 0 0 290.875 420.2A12.5 12.5 0 0 1 296.7 444.525zM337.325 416.425A12.5 12.5 0 0 1 341.45 399.25A175.95 175.95 0 0 0 399.25 341.45A12.5 12.5 0 1 1 420.55 354.525A200.95 200.95 0 0 1 354.525 420.525A12.5 12.5 0 0 1 337.325 416.425zM145.5 420.55A12.5 12.5 0 1 0 158.575 399.25A176 176 0 0 1 106.375 350H187.5A12.5 12.5 0 0 0 187.5 325H87.5A12.5 12.5 0 0 0 75 337.5V437.5A12.5 12.5 0 0 0 100 437.5V382.3A200.9250000000001 200.9250000000001 0 0 0 145.5 420.55zM429.475 305.9500000000001A12.5 12.5 0 0 1 420.225 290.875A175.5 175.5 0 0 0 420.225 209.125A12.5 12.5 0 1 1 444.55 203.3A200.5 200.5 0 0 1 444.55 296.7000000000001A12.5 12.5 0 0 1 429.475 305.9500000000001zM50 250V262.5A12.5 12.5 0 0 0 75 262.5V250C75 235.9 76.675 222.225 79.8 209.125A12.5 12.5 0 0 0 55.475 203.3A200.5 200.5 0 0 0 50 250zM416.425 162.675A12.5 12.5 0 0 1 399.25 158.55A175.925 175.925 0 0 0 341.425 100.75A12.5 12.5 0 0 1 354.5250000000001 79.4500000000001A200.9250000000001 200.9250000000001 0 0 1 420.5250000000001 145.475A12.5 12.5 0 0 1 416.425 162.675zM79.45 145.475A12.5 12.5 0 1 0 100.75 158.55A175.95 175.95 0 0 1 158.55 100.75A12.5 12.5 0 1 0 145.475 79.4500000000001A200.95 200.95 0 0 0 79.475 145.475zM305.9500000000001 70.55A12.5 12.5 0 0 1 290.8750000000001 79.8A175.5 175.5 0 0 0 209.1250000000001 79.8A12.5 12.5 0 1 1 203.3000000000001 55.475A200.5 200.5 0 0 1 296.7000000000001 55.475A12.5 12.5 0 0 1 305.9500000000001 70.5500000000001z" />
    <glyph glyph-name="arrow_counterclockwise"
      unicode="&#xE04E;"
      horiz-adv-x="500" d="M423.35 273.75A175 175 0 0 1 109.425 354.25L106.25 350H187.5A12.5 12.5 0 1 0 187.5 325H87.5A12.5 12.5 0 0 0 75 337.5V437.45A12.5 12.5 0 1 0 100 437.45V382.275A200 200 0 1 0 50.35 262.9A12.5 12.5 0 1 0 75.3 261.3A175 175 0 1 1 423.35 273.7000000000001z" />
    <glyph glyph-name="arrow_curve_down_left"
      unicode="&#xE050;"
      horiz-adv-x="500" d="M331.425 426.775A12.5 12.5 0 0 1 318.575 448.225C285.7000000000001 428.475 261.85 404.925 246.525 372.525C231.325 340.5 225 300.875 225 250V92.675L146.35 171.3250000000001A12.5 12.5 0 1 1 128.65 153.65L228.6500000000001 53.65A12.5 12.5 0 0 1 246.35 53.65L346.35 153.65A12.5 12.5 0 0 1 328.6500000000001 171.3250000000001L250 92.675V250C250 299.125 256.175 334.5 269.1 361.825C281.9 388.825 301.8 409 331.425 426.775z" />
    <glyph glyph-name="arrow_curve_down_right"
      unicode="&#xE051;"
      horiz-adv-x="500" d="M168.575 426.775A12.5 12.5 0 1 0 181.425 448.225C214.3 428.475 238.15 404.925 253.475 372.525C268.675 340.5 275 300.875 275 250V92.675L353.6500000000001 171.3250000000001A12.5 12.5 0 0 0 371.35 153.65L271.35 53.65A12.5 12.5 0 0 0 253.6500000000001 53.65L153.65 153.65A12.5 12.5 0 1 0 171.35 171.3250000000001L250 92.675V250C250 299.125 243.825 334.5 230.9 361.825C218.1 388.825 198.2 409 168.575 426.775z" />
    <glyph glyph-name="arrow_curve_up_left"
      unicode="&#xE052;"
      horiz-adv-x="500" d="M146.35 328.65A12.5 12.5 0 1 0 128.65 346.35L228.6500000000001 446.35A12.5 12.5 0 0 0 246.35 446.35L346.35 346.35A12.5 12.5 0 0 0 328.6500000000001 328.65L250 407.325V250C250 200.875 256.175 165.5 269.1 138.175C281.9 111.175 301.8 91 331.425 73.225A12.5 12.5 0 0 0 318.575 51.775C285.7000000000001 71.525 261.85 95.0750000000001 246.525 127.4500000000001C231.325 159.525 225 199.125 225 250V407.325L146.35 328.65z" />
    <glyph glyph-name="arrow_curve_up_right"
      unicode="&#xE053;"
      horiz-adv-x="500" d="M353.6500000000001 328.65A12.5 12.5 0 0 1 371.35 346.35L271.35 446.35A12.5 12.5 0 0 1 253.6500000000001 446.35L153.65 346.35A12.5 12.5 0 1 1 171.35 328.65L250 407.325V250C250 200.875 243.825 165.5 230.9 138.175C218.1 111.175 198.2 91 168.575 73.225A12.5 12.5 0 0 1 181.425 51.775C214.3 71.525 238.15 95.0750000000001 253.475 127.4500000000001C268.6750000000001 159.525 275.0000000000001 199.1250000000001 275.0000000000001 250.0000000000001V407.325L353.6500000000001 328.6500000000001z" />
    <glyph glyph-name="arrow_down_left"
      unicode="&#xE055;"
      horiz-adv-x="500" d="M287.5 100A12.5 12.5 0 0 0 287.5 75H87.5A12.5 12.5 0 0 0 75 87.5V287.5A12.5 12.5 0 0 0 100 287.5V117.675L403.6500000000001 421.35A12.5 12.5 0 1 0 421.35 403.65L117.675 100H287.5z" />
    <glyph glyph-name="arrow_down"
      unicode="&#xE054;"
      horiz-adv-x="500" d="M421.675 229.075A12.5 12.5 0 1 1 403.2 245.925L262.4500000000001 91.725V437.5A12.5 12.5 0 0 1 237.45 437.5V91.8L96.725 245.925A12.5 12.5 0 0 1 78.275 229.075L236.1250000000001 56.175A18.675 18.675 0 0 1 263.8250000000001 56.175L421.6750000000002 229.075z" />
    <glyph glyph-name="arrow_download"
      unicode="&#xE056;"
      horiz-adv-x="500" d="M387.5 75A12.5 12.5 0 0 0 389.75 50.2L387.5 50H112.5A12.5 12.5 0 0 0 110.25 74.8L112.5 75H387.5zM250 449.95A12.5 12.5 0 0 0 262.3 439.7L262.5 437.45L262.4000000000001 142.6L353.525 233.8A12.5 12.5 0 0 0 369.475 235.275L371.225 233.825A12.5 12.5 0 0 0 372.675 217.875L371.225 216.125L258.925 103.625A12.425 12.425 0 0 0 252.55 100.225L249.9 99.975A12.475 12.475 0 0 0 240.025 104.85L128.6 216.125A12.5 12.5 0 0 0 144.525 235.275L146.275 233.825L237.4 142.8L237.5 437.45A12.5 12.5 0 0 0 250 449.95z" />
    <glyph glyph-name="arrow_eject"
      unicode="&#xE057;"
      horiz-adv-x="500" d="M239.95 370A12.5 12.5 0 0 0 259.9500000000001 370L372.4250000000001 219.975A12.5 12.5 0 0 0 362.4250000000001 199.975H137.575A12.5 12.5 0 0 0 127.575 219.975L239.95 369.975zM279.95 385C264.9500000000001 405 234.95 405 219.95 385L107.55 234.95C89.05 210.225 106.675 174.95 137.55 174.95H362.425C393.325 174.95 410.95 210.25 392.425 234.95L279.975 385zM100 125A12.5 12.5 0 0 1 100 100H400A12.5 12.5 0 0 1 400 125H100z" />
    <glyph glyph-name="arrow_enter_left"
      unicode="&#xE059;"
      horiz-adv-x="500" d="M94 200L177.325 121.6A12.5 12.5 0 0 0 160.175 103.4L53.925 203.4A12.5 12.5 0 0 0 53.925 221.6L160.175 321.6A12.5 12.5 0 1 0 177.325 303.4000000000001L94 225H375A50 50 0 0 1 425 275V387.5A12.5 12.5 0 0 0 450 387.5V275A75 75 0 0 0 375 200H94z" />
    <glyph glyph-name="arrow_enter_up"
      unicode="&#xE05A;"
      horiz-adv-x="500" d="M221.6 446.075A12.5 12.5 0 0 1 203.4 446.075L103.4 339.825A12.5 12.5 0 0 1 121.6 322.675L200 406V125A75 75 0 0 1 275 50H387.5A12.5 12.5 0 0 1 387.5 75H275A50 50 0 0 0 225 125V406L303.4 322.675A12.5 12.5 0 0 1 321.6 339.825L221.6 446.075z" />
    <glyph glyph-name="arrow_enter"
      unicode="&#xE058;"
      horiz-adv-x="500" d="M187.5 75A12.5 12.5 0 0 0 187.5 100H350A50 50 0 0 1 400 150V350A50 50 0 0 1 350 400H187.5A12.5 12.5 0 0 0 187.5 425H350A75 75 0 0 0 425 350V150A75 75 0 0 0 350 75H187.5zM191.15 346.35A12.5 12.5 0 0 0 208.85 346.35L296.35 258.85A12.5 12.5 0 0 0 296.35 241.15L208.85 153.65A12.5 12.5 0 0 0 191.15 171.35L257.325 237.5H37.5A12.5 12.5 0 0 0 37.5 262.5H257.325L191.15 328.65A12.5 12.5 0 0 0 191.15 346.35z" />
    <glyph glyph-name="arrow_exit"
      unicode="&#xE05B;"
      horiz-adv-x="500" d="M312.5 75A12.5 12.5 0 0 1 312.5 100H150A50 50 0 0 0 100 150V350A50 50 0 0 0 150 400H312.5A12.5 12.5 0 0 1 312.5 425H150A75 75 0 0 1 75 350V150A75 75 0 0 1 150 75H312.5zM341.1500000000001 346.35A12.5 12.5 0 0 0 358.85 346.35L446.35 258.85A12.5 12.5 0 0 0 446.35 241.15L358.85 153.65A12.5 12.5 0 0 0 341.15 171.35L407.325 237.5H187.5A12.5 12.5 0 0 0 187.5 262.5H407.325L341.15 328.65A12.5 12.5 0 0 0 341.15 346.35z" />
    <glyph glyph-name="arrow_expand"
      unicode="&#xE05C;"
      horiz-adv-x="500" d="M87.5 425A12.5 12.5 0 0 1 75 412.5V312.5A12.5 12.5 0 0 1 100 312.5V382.325L178.65 303.6500000000001A12.5 12.5 0 1 1 196.35 321.35L117.675 400H187.5A12.5 12.5 0 0 1 187.5 425H87.5zM87.5 75A12.5 12.5 0 0 0 75 87.5V187.5A12.5 12.5 0 0 0 100 187.5V117.675L178.65 196.35A12.5 12.5 0 0 0 196.35 178.65L117.675 100H187.5A12.5 12.5 0 0 0 187.5 75H87.5zM425 412.5A12.5 12.5 0 0 1 412.5 425H312.5A12.5 12.5 0 0 1 312.5 400H382.325L303.65 321.35A12.5 12.5 0 0 1 321.35 303.65L400 382.325V312.5A12.5 12.5 0 0 1 425 312.5V412.5zM412.5 75A12.5 12.5 0 0 1 425 87.5V187.5A12.5 12.5 0 0 1 400 187.5V117.675L321.35 196.35A12.5 12.5 0 0 1 303.65 178.65L382.325 100H312.5A12.5 12.5 0 0 1 312.5 75H412.5z" />
    <glyph glyph-name="arrow_export_ltr"
      unicode="&#xE05D;"
      horiz-adv-x="500" d="M62.5 400A12.5 12.5 0 0 0 75 387.5V112.5A12.5 12.5 0 0 0 50 112.5V387.5A12.5 12.5 0 0 0 62.5 400zM125 250A12.5 12.5 0 0 0 137.5 262.5H407.325L328.65 341.15A12.5 12.5 0 0 0 346.35 358.85L446.35 258.85A12.5 12.5 0 0 0 446.35 241.15L346.35 141.15A12.5 12.5 0 0 0 328.65 158.825L407.325 237.5H137.5A12.5 12.5 0 0 0 125 250z" />
    <glyph glyph-name="arrow_export_rtl"
      unicode="&#xE05E;"
      horiz-adv-x="500" d="M437.5 400A12.5 12.5 0 0 1 425 387.5V112.5A12.5 12.5 0 0 1 450 112.5V387.5A12.5 12.5 0 0 1 437.5 400zM375 250A12.5 12.5 0 0 1 362.5 262.5H92.675L171.35 341.15A12.5 12.5 0 0 1 153.65 358.85L53.65 258.85A12.45 12.45 0 0 1 53.65 241.15L153.65 141.15A12.5 12.5 0 0 1 171.35 158.825L92.675 237.5H362.5A12.5 12.5 0 0 1 375 250z" />
    <glyph glyph-name="arrow_export_up"
      unicode="&#xE05F;"
      horiz-adv-x="500" d="M241.1500000000001 446.35A12.5 12.5 0 0 0 258.85 446.35L358.85 346.35A12.5 12.5 0 0 0 341.1500000000001 328.65L262.5 407.325V137.5A12.5 12.5 0 0 0 237.5 137.5V407.325L158.85 328.65A12.5 12.5 0 1 0 141.15 346.35L241.1500000000001 446.35zM100 62.5A12.5 12.5 0 0 0 112.5 75H387.5A12.5 12.5 0 0 0 387.5 50H112.5A12.5 12.5 0 0 0 100 62.5z" />
    <glyph glyph-name="arrow_fit_in"
      unicode="&#xE061;"
      horiz-adv-x="500" d="M141.15 316.15A12.5 12.5 0 1 0 158.85 333.85L221.35 271.35A12.5 12.5 0 0 0 221.35 253.65L158.85 191.15A12.5 12.5 0 0 0 141.15 208.85L182.325 250H62.5A12.5 12.5 0 0 0 62.5 275H182.325L141.15 316.15zM358.85 316.15A12.5 12.5 0 0 1 341.15 333.85L278.65 271.35A12.5 12.5 0 0 1 278.65 253.65L341.15 191.15A12.5 12.5 0 0 1 358.85 208.85L317.675 250H437.5A12.5 12.5 0 0 1 437.5 275H317.675L358.85 316.15z" />
    <glyph glyph-name="arrow_fit"
      unicode="&#xE060;"
      horiz-adv-x="500" d="M133.85 333.85A12.5 12.5 0 0 0 133.85 316.15L92.675 275H212.5A12.5 12.5 0 0 0 212.5 250H92.675L133.85 208.85A12.5 12.5 0 0 0 116.15 191.15L53.65 253.65A12.5 12.5 0 0 0 53.65 271.35L116.15 333.85A12.5 12.5 0 0 0 133.85 333.85zM366.1500000000001 333.85A12.5 12.5 0 0 0 383.85 333.85L446.35 271.35A12.5 12.5 0 0 0 446.35 253.65L383.85 191.15A12.5 12.5 0 0 0 366.15 208.85L407.325 250H287.5A12.5 12.5 0 0 0 287.5 275H407.325L366.15 316.15A12.5 12.5 0 0 0 366.15 333.85z" />
    <glyph glyph-name="arrow_forward_down_lightning"
      unicode="&#xE063;"
      horiz-adv-x="500" d="M407.325 325L340.275 392.05A12.5 12.5 0 0 0 356.225 411.175L357.95 409.725L447.1 320.5L448.35 318.75L449.0250000000001 317.325L449.6 315.65L449.725 315.125A12.4 12.4 0 0 0 450 312.5L449.9500000000001 313.1V311.425L449.575 309.275L449.0750000000001 307.725L448.0750000000001 305.825L446.7000000000001 304.05L357.9500000000001 215.275A12.5 12.5 0 0 0 338.8250000000001 231.225L340.2750000000001 232.9500000000001L407.325 299.975L300 300C211.95 300 152.875 349.4 150.1 419.8L150 425A12.5 12.5 0 0 0 175 425C175 368.175 220.175 327.375 293.475 325.1L300 325H407.325zM275 162.5A112.5 112.5 0 1 0 50 162.5A112.5 112.5 0 0 0 275 162.5zM147 237.5A12.5 12.5 0 0 1 135.2 229.1500000000001L113.2 166.65A12.5 12.5 0 0 1 125 150.025H144.4L131.7 103.275A12.5 12.5 0 0 1 154.275 93.275L210.525 180.775A12.5 12.5 0 0 1 200 200H181.35L188.35 221.025A12.5 12.5 0 0 1 176.5 237.5H147z" />
    <glyph glyph-name="arrow_forward_down_person"
      unicode="&#xE064;"
      horiz-adv-x="500" d="M340.25 392.025L407.35 325H300L293.475 325.125C220.15 327.35 175 368.15 175 425A12.5 12.5 0 0 1 150 425L150.1 419.8C152.85 349.375 211.95 300 300 300L407.325 299.975L340.275 232.9500000000001L338.825 231.2000000000001A12.5 12.5 0 0 1 357.95 215.2500000000001L446.7 304.0250000000001L448.075 305.8250000000001L449.075 307.7000000000001L449.575 309.2750000000001L449.95 311.4250000000001V313.1L450 312.5A12.4 12.4 0 0 1 449.725 315.1L449.6 315.625L449.0250000000001 317.325L448.35 318.725L447.1 320.475L357.9500000000001 409.725L356.2000000000001 411.15A12.5 12.5 0 0 1 340.2750000000001 392.025zM187.5 225A50 50 0 1 0 87.5 225A50 50 0 0 0 187.5 225zM225 112.5C225 81.375 200 50 137.5 50S50 81.25 50 112.5A37.5 37.5 0 0 0 87.5 150H187.5A37.5 37.5 0 0 0 225 112.5z" />
    <glyph glyph-name="arrow_forward"
      unicode="&#xE062;"
      horiz-adv-x="500" d="M407.325 275L322.575 190.25A12.5 12.5 0 0 1 338.55 171.15L340.275 172.575L446.35 278.6500000000001A12.5 12.5 0 0 1 447.7749999999999 294.6L446.35 296.35L340.275 402.4000000000001A12.5 12.5 0 0 1 321.15 386.4500000000001L322.6 384.7000000000001L407.325 300H250A187.5 187.5 0 0 1 62.6 118.55L62.5 112.5A12.5 12.5 0 0 1 87.5 112.5A162.5 162.5 0 0 0 244.175 274.9L250 275H407.325z" />
    <glyph glyph-name="arrow_hook_down_left"
      unicode="&#xE065;"
      horiz-adv-x="500" d="M150 387.5A12.5 12.5 0 0 0 162.5 400H275C315.9 400 347.5 384.55 368.725 360.65C389.75 336.975 400 305.8 400 275C400 244.2 389.75 213 368.725 189.35C347.475 165.45 315.9 150 275 150H142.675L208.85 83.85A12.5 12.5 0 0 0 191.15 66.15L103.65 153.65A12.5 12.5 0 0 0 103.65 171.35L191.15 258.85A12.5 12.5 0 1 0 208.85 241.1500000000001L142.675 175H275C309.1 175 333.75 187.675 350.025 205.95C366.5 224.5 375 249.55 375 275S366.5 325.5 350.025 344.05C333.7750000000001 362.3250000000001 309.1 375 275 375H162.5A12.5 12.5 0 0 0 150 387.5z" />
    <glyph glyph-name="arrow_hook_down_right"
      unicode="&#xE066;"
      horiz-adv-x="500" d="M100 275A125 125 0 0 0 225 400H337.5A12.5 12.5 0 0 0 337.5 375H225A100 100 0 1 1 225 175H357.325L289.825 242.5A12.5 12.5 0 1 0 307.525 260.15L396 171.675A12.5 12.5 0 0 0 399.125 159.25A12.475 12.475 0 0 0 395.75 153.075L307.425 64.75A12.5 12.5 0 0 0 289.75 82.425L357.325 150H225A125 125 0 0 0 100 275z" />
    <glyph glyph-name="arrow_hook_up_left"
      unicode="&#xE067;"
      horiz-adv-x="500" d="M150 112.5A12.5 12.5 0 0 1 162.5 100H275C315.9 100 347.5 115.45 368.725 139.35C389.75 163.025 400 194.2000000000001 400 225C400 255.8 389.75 287 368.725 310.65C347.475 334.55 315.9 350 275 350H142.675L208.85 416.15A12.5 12.5 0 1 1 191.15 433.85L103.65 346.35A12.5 12.5 0 0 1 103.65 328.65L191.15 241.1500000000001A12.5 12.5 0 0 1 208.85 258.85L142.675 325H275C309.1 325 333.75 312.3250000000001 350.025 294.05C366.5 275.5 375 250.45 375 225S366.5 174.5 350.025 155.95C333.7750000000001 137.675 309.1 125 275 125H162.5A12.5 12.5 0 0 1 150 112.5z" />
    <glyph glyph-name="arrow_hook_up_right"
      unicode="&#xE068;"
      horiz-adv-x="500" d="M100 225A125 125 0 0 1 225 100H337.5A12.5 12.5 0 0 1 337.5 125H225A100 100 0 0 0 225 325H357.325L289.825 257.5A12.5 12.5 0 1 1 307.525 239.85L396 328.3250000000001A12.5 12.5 0 0 1 399.125 340.75A12.45 12.45 0 0 1 395.75 346.925L307.425 435.25A12.5 12.5 0 1 1 289.75 417.575L357.325 350H225A125 125 0 0 1 100 225z" />
    <glyph glyph-name="arrow_import"
      unicode="&#xE069;"
      horiz-adv-x="500" d="M437.5 400A12.5 12.5 0 0 0 450 387.5V112.5A12.5 12.5 0 0 0 425 112.5V387.5A12.5 12.5 0 0 0 437.5 400zM50 250A12.5 12.5 0 0 0 62.5 262.5H332.325L253.65 341.15A12.5 12.5 0 0 0 271.35 358.85L371.35 258.85A12.5 12.5 0 0 0 375 250.075V249.925C375 246.75 373.75 243.575 371.35 241.175L271.35 141.175A12.5 12.5 0 0 0 253.65 158.85L332.325 237.5H62.5A12.5 12.5 0 0 0 50 250z" />
    <glyph glyph-name="arrow_join"
      unicode="&#xE06A;"
      horiz-adv-x="500" d="M125 437.5A12.5 12.5 0 0 1 100 437.5A186.325 186.325 0 0 1 219.425 262.5A186.325 186.325 0 0 1 100 87.5A12.5 12.5 0 0 1 125 87.5C125 178.1 196.9 250 287.5 250H307.325L278.65 221.35A12.5 12.5 0 0 1 296.35 203.65L346.35 253.65A12.5 12.5 0 0 1 346.35 271.35L296.35 321.35A12.5 12.5 0 0 1 278.65 303.65L307.325 275H287.5A161.425 161.425 0 0 0 125 437.5zM212.5 400A12.5 12.5 0 0 1 212.5 375H375C388.1 375 400 363.1 400 350V175C400 161.9 388.1 150 375 150H212.5A12.5 12.5 0 0 1 212.5 125H375C401.9000000000001 125 425 148.1 425 175V350C425 376.9 401.9000000000001 400 375 400H212.5z" />
    <glyph glyph-name="arrow_left"
      unicode="&#xE06B;"
      horiz-adv-x="500" d="M228.975 90.825A12.5 12.5 0 1 1 245.825 109.3L91.625 250.05H437.4A12.5 12.5 0 0 1 437.4 275.05H91.7L245.825 415.775A12.5 12.5 0 0 1 228.975 434.225L56.075 276.375A18.65 18.65 0 0 1 50.075 260.6A18.65 18.65 0 0 1 56.075 248.675L228.975 90.825z" />
    <glyph glyph-name="arrow_maximize_vertical"
      unicode="&#xE06D;"
      horiz-adv-x="500" d="M241.1500000000001 464.9A12.5 12.5 0 0 0 258.85 464.9L311.85 411.85A12.5 12.5 0 0 0 294.2000000000001 394.175L262.5 425.875V312.5A12.5 12.5 0 0 0 237.5 312.5V425.875L205.8 394.175A12.5 12.5 0 1 0 188.125 411.85L241.15 464.9zM100 250A12.5 12.5 0 0 0 112.5 262.5H387.5A12.5 12.5 0 0 0 387.5 237.5H112.5A12.5 12.5 0 0 0 100 250zM262.5 74.1V187.5A12.5 12.5 0 0 1 237.5 187.5V74.1L205.8 105.8A12.5 12.5 0 1 1 188.125 88.1249999999999L241.15 35.075A12.5 12.5 0 0 1 258.85 35.075L311.85 88.1249999999999A12.5 12.5 0 0 1 294.2000000000001 105.8L262.5 74.1z" />
    <glyph glyph-name="arrow_maximize"
      unicode="&#xE06C;"
      horiz-adv-x="500" d="M262.5 425L413.575 424.95L415.7 424.575L417.275 424.075L419.175 423.075L420.55 422.075L422.05 420.575L422.8 419.625L423.825 417.775L424.575 415.7L424.9500000000001 413.65L425 412.5V262.5A12.5 12.5 0 0 0 400.2 260.25L400 262.5V382.35L117.65 100H237.5A12.5 12.5 0 0 0 249.8 89.75L250 87.5A12.5 12.5 0 0 0 239.75 75.2L237.5 75H87L85.275 75.2L82.725 75.95L80.825 76.95L79.45 77.95L77.95 79.4499999999999L77.2 80.3749999999999L76.175 82.225L75.425 84.2999999999999L75.275 84.8749999999999A12.475 12.475 0 0 0 75 87.5L75.125 85.65L75.05 86.425L75 237.5A12.5 12.5 0 0 0 99.8 239.75L100 237.5V117.7L382.3 400H262.5A12.5 12.5 0 0 0 250.2 410.25L250 412.5A12.5 12.5 0 0 0 262.5 425z" />
    <glyph glyph-name="arrow_minimize_vertical"
      unicode="&#xE06F;"
      horiz-adv-x="500" d="M237.5 475A12.5 12.5 0 0 0 250 462.5V367.675L278.6500000000001 396.35A12.5 12.5 0 0 0 296.35 378.65L246.35 328.65A12.5 12.5 0 0 0 228.6500000000001 328.65L178.65 378.65A12.5 12.5 0 1 0 196.35 396.35L225 367.675V462.5A12.5 12.5 0 0 0 237.5 475zM87.5 262.5A12.5 12.5 0 0 0 100 275H375A12.5 12.5 0 0 0 375 250H100A12.5 12.5 0 0 0 87.5 262.5zM250 157.325V62.5A12.5 12.5 0 0 0 225 62.5V157.325L196.35 128.65A12.5 12.5 0 0 0 178.65 146.35L228.6500000000001 196.35A12.5 12.5 0 0 0 246.35 196.35L296.35 146.35A12.5 12.5 0 0 0 278.6500000000001 128.65L250 157.325z" />
    <glyph glyph-name="arrow_minimize"
      unicode="&#xE06E;"
      horiz-adv-x="500" d="M87.5 225H212.5A12.5 12.5 0 0 0 224.8 214.75L225 212.5V87.5A12.5 12.5 0 0 0 200.2 85.25L200 87.5V182.35L71.35 53.65A12.5 12.5 0 0 0 52.225 69.6000000000001L53.65 71.3500000000001L182.3 200H87.5A12.5 12.5 0 0 0 75.2 210.25L75 212.5A12.5 12.5 0 0 0 85.25 224.8L87.5 225H212.5H87.5zM446.35 446.35A12.5 12.5 0 0 0 447.7749999999999 430.4L446.35 428.65L317.65 300H412.5A12.5 12.5 0 0 0 424.8 289.75L425 287.5A12.5 12.5 0 0 0 414.75 275.2L412.5 275H287L285.275 275.2L282.725 275.95L280.825 276.95L279.45 277.95L278.65 278.6499999999999L277.725 279.7L276.675 281.2499999999999L275.925 282.7499999999999L275.425 284.2999999999999L275.275 284.8749999999999A12.4 12.4 0 0 0 275 287.5L275.125 285.65L275.05 286.425L275 412.5A12.5 12.5 0 0 0 299.8 414.75L300 412.5V317.7000000000001L428.6500000000001 446.35A12.5 12.5 0 0 0 446.35 446.35z" />
    <glyph glyph-name="arrow_move_inward"
      unicode="&#xE071;"
      horiz-adv-x="500" d="M178.65 91.15A12.5 12.5 0 0 1 196.35 91.15L237.5 132.325V37.5A12.5 12.5 0 0 1 262.5 37.5V132.325L303.6500000000001 91.15A12.5 12.5 0 0 1 321.35 108.85L258.85 171.35A12.5 12.5 0 0 1 241.1500000000001 171.35L178.65 108.85A12.5 12.5 0 0 1 178.65 91.15zM408.85 303.6500000000001A12.5 12.5 0 0 1 391.15 321.35L328.65 258.85A12.5 12.5 0 0 1 328.65 241.1500000000001L391.15 178.65A12.5 12.5 0 0 1 408.85 196.35L367.675 237.5H462.5A12.5 12.5 0 0 1 462.5 262.5H367.675L408.85 303.65zM91.15 303.6500000000001A12.5 12.5 0 1 0 108.85 321.35L171.35 258.85A12.5 12.5 0 0 0 171.35 241.1500000000001L108.85 178.65A12.5 12.5 0 0 0 91.15 196.35L132.325 237.5H37.5A12.5 12.5 0 0 0 37.5 262.5H132.325L91.15 303.65zM196.35 408.85A12.5 12.5 0 1 1 178.65 391.1500000000001L241.15 328.6500000000001A12.5 12.5 0 0 1 258.85 328.6500000000001L321.35 391.1500000000001A12.5 12.5 0 0 1 303.65 408.85L262.5 367.675V462.5A12.5 12.5 0 0 1 237.5 462.5V367.675L196.35 408.85z" />
    <glyph glyph-name="arrow_move"
      unicode="&#xE070;"
      horiz-adv-x="500" d="M258.85 446.35A12.5 12.5 0 0 1 241.15 446.35L178.65 383.85A12.5 12.5 0 1 1 196.35 366.15L237.5 407.325V312.5A12.5 12.5 0 0 1 262.5 312.5V407.325L303.6500000000001 366.15A12.5 12.5 0 0 1 321.35 383.85L258.85 446.35zM53.65 258.85A12.5 12.5 0 0 1 53.65 241.15L116.15 178.65A12.5 12.5 0 0 1 133.85 196.35L92.675 237.5H187.5A12.5 12.5 0 0 1 187.5 262.5H92.675L133.85 303.65A12.5 12.5 0 1 1 116.15 321.35L53.65 258.85zM250 50A12.5 12.5 0 0 0 241.1500000000001 53.65L178.65 116.15A12.5 12.5 0 0 0 196.35 133.85L237.5 92.675V187.5A12.5 12.5 0 0 0 262.5 187.5V92.675L303.6500000000001 133.85A12.5 12.5 0 0 0 321.35 116.15L258.85 53.65A12.5 12.5 0 0 0 250 50zM446.35 241.1500000000001A12.5 12.5 0 0 1 446.35 258.85L383.85 321.35A12.5 12.5 0 0 1 366.15 303.6500000000001L407.325 262.5H312.5A12.5 12.5 0 0 1 312.5 237.5H407.325L366.15 196.35A12.5 12.5 0 0 1 383.85 178.65L446.35 241.15z" />
    <glyph glyph-name="arrow_next"
      unicode="&#xE072;"
      horiz-adv-x="500" d="M337.5 375A12.5 12.5 0 0 0 349.8 364.75L350 362.5V137.5A12.5 12.5 0 0 0 325.2 135.25L325 137.5V362.5A12.5 12.5 0 0 0 337.5 375zM141.15 371.35A12.5 12.5 0 0 0 157.1 372.775L158.85 371.35L271.35 258.85A12.5 12.5 0 0 0 272.775 242.9L271.35 241.15L158.85 128.65A12.5 12.5 0 0 0 139.725 144.6L141.15 146.35L244.825 250L141.15 353.65A12.5 12.5 0 0 0 141.15 371.35z" />
    <glyph glyph-name="arrow_outline_up_right"
      unicode="&#xE073;"
      horiz-adv-x="500" d="M424.925 411.125A12.5 12.5 0 0 1 411.1 424.925L168.525 397.975A12.5 12.5 0 0 1 161.05 376.725L196.575 341.2A12.5 12.5 0 0 0 196.575 323.5L78.65 205.6A12.5 12.5 0 0 1 78.65 187.925L187.9 78.675A12.5 12.5 0 0 1 205.575 78.675L323.5000000000001 196.5999999999999A12.5 12.5 0 0 0 341.1750000000001 196.5999999999999L376.6750000000001 161.0749999999999A12.5 12.5 0 0 1 397.9500000000001 168.5249999999999L424.9250000000001 411.125zM408.35 449.775A37.5 37.5 0 0 0 449.75 408.35L422.8 165.775C419.325 134.525 381.25 121.175 359.025 143.4L332.325 170.0750000000001L223.25 61.0000000000001A37.5 37.5 0 0 0 170.25 61.0000000000001L61 170.2500000000001A37.5 37.5 0 0 0 61 223.2750000000001L170.05 332.3500000000001L143.375 359.0250000000001C121.15 381.2750000000001 134.5 419.3500000000001 165.75 422.8000000000001L408.35 449.7750000000001z" />
    <glyph glyph-name="arrow_paragraph"
      unicode="&#xE074;"
      horiz-adv-x="500" d="M303.6500000000001 228.6500000000001A12.5 12.5 0 0 1 321.35 246.35L267.675 300H387.5A62.5 62.5 0 0 1 450 362.5V437.5S450 450 437.5 450S425 437.5 425 437.5V362.5A37.5 37.5 0 0 0 387.5 325H267.675L321.35 378.65A12.5 12.5 0 0 1 303.6500000000001 396.35L228.6500000000001 321.35A12.5 12.5 0 0 1 228.6500000000001 303.65L303.6500000000001 228.6500000000001zM196.35 271.35A12.5 12.5 0 1 1 178.65 253.65L232.325 200H62.5S50 200 50 187.5S62.5 175 62.5 175H232.325L178.65 121.35A12.5 12.5 0 0 1 196.35 103.65L271.35 178.65A12.5 12.5 0 0 1 271.35 196.35L196.35 271.35z" />
    <glyph glyph-name="arrow_previous"
      unicode="&#xE075;"
      horiz-adv-x="500" d="M150 375A12.5 12.5 0 0 1 137.7 364.75L137.5 362.5V137.5A12.5 12.5 0 0 1 162.3 135.25L162.5 137.5V362.5A12.5 12.5 0 0 1 150 375zM346.35 371.35A12.5 12.5 0 0 1 330.4 372.775L328.65 371.35L216.15 258.85A12.5 12.5 0 0 1 214.725 242.9L216.15 241.15L328.65 128.65A12.5 12.5 0 0 1 347.775 144.6L346.35 146.35L242.675 250L346.35 353.65A12.5 12.5 0 0 1 346.35 371.35z" />
    <glyph glyph-name="arrow_redo"
      unicode="&#xE076;"
      horiz-adv-x="500" d="M375.075 437.5A12.5 12.5 0 0 0 400.075 437.5V315A15 15 0 0 0 385.075 300H262.575A12.5 12.5 0 0 0 262.575 325H352.425L265.6 400.475A100 100 0 1 1 134.4 249.525L338.7 71.925A12.5 12.5 0 1 0 322.3 53.0749999999999L118 230.6500000000001A125 125 0 1 0 282 419.3250000000001L375.075 338.425V437.5z" />
    <glyph glyph-name="arrow_repeat_1"
      unicode="&#xE077;"
      horiz-adv-x="500" d="M412.5 333.225C415.4 333.225 418.075 332.225 420.2 330.55L421.875 328.975L422.3 328.475A124.5 124.5 0 0 0 449.1500000000001 235.425A136.55 136.55 0 0 1 424.875 244.85A100.175 100.175 0 0 1 402.725 312.9A12.5 12.5 0 0 0 412.4750000000001 333.2000000000001zM255.175 150A137.225 137.225 0 0 1 250.55 125H175A126.75 126.75 0 0 0 167.425 125.225L208.85 83.85A12.5 12.5 0 0 0 210.275 67.8999999999999L208.85 66.1499999999999A12.5 12.5 0 0 0 192.9 64.725L191.15 66.1499999999999L128.65 128.6499999999999A12.5 12.5 0 0 0 127.225 144.5999999999999L128.65 146.3499999999999L191.15 208.8499999999999A12.5 12.5 0 0 0 210.275 192.8999999999999L208.85 191.1499999999999L167.925 150.25L171.425 150.05L175 150H255.175zM291.175 433.85A12.5 12.5 0 0 0 307.1 435.275L308.85 433.85L371.35 371.35L372.7750000000001 369.6A12.5 12.5 0 0 0 372.7750000000001 355.4L371.35 353.65L308.85 291.15L307.1 289.725A12.5 12.5 0 0 0 292.9000000000001 289.725L291.1500000000001 291.15L289.725 292.9A12.5 12.5 0 0 0 289.725 307.1L291.1500000000001 308.85L332.0750000000001 349.75L328.5750000000001 349.95L325 350H175A100 100 0 0 1 97.375 186.95A12.5 12.5 0 1 0 77.35 171.925A125 125 0 0 0 169.575 374.9L175 375H325C327.55 375 330.075 374.925 332.5750000000001 374.775L291.1500000000001 416.15L289.725 417.9A12.5 12.5 0 0 0 291.1500000000001 433.85zM500 112.5A112.5 112.5 0 1 0 275 112.5A112.5 112.5 0 0 0 500 112.5zM401.2000000000001 179.025A15.5 15.5 0 0 1 384.2000000000001 173.2C378.8750000000001 165.625 369.7000000000001 155.05 356.9000000000001 148.7A12.5 12.5 0 1 1 368.1 126.325C375.5750000000001 130.075 382.0250000000001 134.725 387.5000000000001 139.55V62.5A12.5 12.5 0 0 1 412.5 62.5V164.4C412.5 173.125 405.825 177.725 401.2 179.025z" />
    <glyph glyph-name="arrow_repeat_all_off"
      unicode="&#xE079;"
      horiz-adv-x="500" d="M53.65 446.35A12.5 12.5 0 0 0 69.6 447.775L71.35 446.35L446.35 71.35L447.7749999999999 69.6A12.5 12.5 0 0 0 430.3999999999999 52.225L428.6499999999999 53.6499999999999L353.95 128.375A124.775 124.775 0 0 0 332.425 125.225L325 125H175C172.45 125 169.925 125.075 167.4 125.25L208.85 83.85A12.5 12.5 0 0 0 210.275 67.8999999999999L208.85 66.1499999999999A12.5 12.5 0 0 0 192.9 64.725L191.15 66.1499999999999L128.65 128.6499999999999A12.5 12.5 0 0 0 127.225 144.5999999999999L128.65 146.3499999999999L191.15 208.8499999999999A12.5 12.5 0 0 0 210.275 192.8999999999999L208.85 191.1499999999999L167.95 150.25L171.45 150.05L175 150H325C327.375 150 329.75 150.075 332.075 150.25L139 343.325A100.025 100.025 0 0 1 97.375 186.95A12.5 12.5 0 1 0 77.35 171.925A125 125 0 0 0 120.025 362.325L53.675 428.625L52.25 430.375A12.5 12.5 0 0 0 53.675 446.325zM412.5 333.225C415.4 333.225 418.075 332.225 420.2 330.55L421.875 328.975L422.3 328.475A124.5 124.5 0 0 0 450 250C450 209.8 431 174 401.525 151.15L383.675 169A99.875 99.875 0 0 1 425 250C425 273.825 416.6500000000001 295.725 402.75 312.9A12.5 12.5 0 0 0 412.5 333.2000000000001zM307.1 435.25L308.85 433.825L371.35 371.325A12.5 12.5 0 0 0 372.7750000000001 355.375L371.35 353.625L308.85 291.125A12.5 12.5 0 0 0 289.725 307.075L291.1500000000001 308.825L332.0750000000001 349.725L328.5750000000001 349.925L325 350H202.65L177.65 375H325C327.55 375 330.075 374.925 332.6 374.75L291.1500000000001 416.15A12.5 12.5 0 0 0 289.725 432.1L291.1500000000001 433.85A12.5 12.5 0 0 0 307.1 435.275z" />
    <glyph glyph-name="arrow_repeat_all"
      unicode="&#xE078;"
      horiz-adv-x="500" d="M412.5 333.225C415.4 333.225 418.075 332.225 420.2 330.55L421.875 328.975L422.3 328.475A125 125 0 0 0 330.425 125.1L325 125H175A126.75 126.75 0 0 0 167.425 125.225L208.85 83.85A12.5 12.5 0 0 0 210.275 67.8999999999999L208.85 66.1499999999999A12.5 12.5 0 0 0 192.9 64.725L191.15 66.1499999999999L128.65 128.6499999999999A12.5 12.5 0 0 0 127.225 144.5999999999999L128.65 146.3499999999999L191.15 208.8499999999999A12.5 12.5 0 0 0 210.275 192.8999999999999L208.85 191.1499999999999L167.925 150.25L171.425 150.05L175 150H325A100 100 0 0 1 402.75 312.9A12.5 12.5 0 0 0 412.5 333.2000000000001zM291.1500000000001 433.85A12.5 12.5 0 0 0 307.1 435.275L308.85 433.85L371.35 371.35L372.7750000000001 369.6A12.5 12.5 0 0 0 372.7750000000001 355.4L371.35 353.65L308.85 291.1500000000001L307.1 289.725A12.5 12.5 0 0 0 292.9000000000001 289.725L291.1500000000001 291.1500000000001L289.725 292.9000000000001A12.5 12.5 0 0 0 289.725 307.1L291.1500000000001 308.85L332.0750000000001 349.75L328.5750000000001 349.9500000000001L325 350H175A100 100 0 0 1 97.375 186.95A12.5 12.5 0 1 0 77.35 171.925A125 125 0 0 0 169.575 374.9L175 375H325C327.55 375 330.075 374.925 332.5750000000001 374.775L291.1500000000001 416.15L289.725 417.9A12.5 12.5 0 0 0 291.1500000000001 433.85z" />
    <glyph glyph-name="arrow_reply_all"
      unicode="&#xE07B;"
      horiz-adv-x="500" d="M252.4 402.4A12.5 12.5 0 0 0 253.85 386.45L252.4 384.7L167.675 300H250A187.5 187.5 0 0 0 437.4000000000001 118.55L437.5000000000001 112.475A12.5 12.5 0 0 0 412.5000000000001 112.475A162.5 162.5 0 0 1 255.8250000000001 274.875L250 275H167.675L252.425 190.25A12.5 12.5 0 0 0 236.45 171.15L234.725 172.575L128.65 278.6500000000001A12.5 12.5 0 0 0 127.225 294.6L128.65 296.35L234.75 402.375A12.5 12.5 0 0 0 252.4250000000001 402.375zM53.65 296.325L159.75 402.4A12.5 12.5 0 0 0 178.875 386.45L177.425 384.7L80.175 287.5L177.425 190.25A12.5 12.5 0 0 0 161.45 171.15L159.725 172.575L53.65 278.6500000000001A12.5 12.5 0 0 0 52.225 294.6L53.65 296.35L159.75 402.375L53.65 296.325z" />
    <glyph glyph-name="arrow_reply_down"
      unicode="&#xE07C;"
      horiz-adv-x="500" d="M92.675 225.05L177.425 309.8000000000001A12.5 12.5 0 0 1 161.45 328.9000000000001L159.75 327.5L53.675 221.425A12.5 12.5 0 0 1 52.25 205.475L53.675 203.725L159.75 97.675A12.5 12.5 0 0 1 178.875 113.625L177.425 115.375L92.7 200.075H250A187.5 187.5 0 0 1 437.4000000000001 381.525L437.5000000000001 387.575A12.5 12.5 0 0 1 412.5000000000001 387.575A162.5 162.5 0 0 0 255.8250000000001 225.2L250.0000000000001 225.0749999999999H92.675L177.425 309.825L92.675 225.0749999999999z" />
    <glyph glyph-name="arrow_reply"
      unicode="&#xE07A;"
      horiz-adv-x="500" d="M92.675 275L177.425 190.25A12.5 12.5 0 0 0 161.45 171.15L159.725 172.575L53.65 278.6500000000001A12.5 12.5 0 0 0 52.225 294.6L53.65 296.35L159.75 402.375A12.5 12.5 0 0 0 178.875 386.425L177.425 384.675L92.675 300H250A187.5 187.5 0 0 0 437.4000000000001 118.55L437.5000000000001 112.475A12.5 12.5 0 0 0 412.5000000000001 112.475A162.5 162.5 0 0 1 255.8250000000001 274.875L250 275H92.675L177.425 190.25L92.65 275z" />
    <glyph glyph-name="arrow_reset"
      unicode="&#xE07D;"
      horiz-adv-x="500" d="M146.35 433.85A12.5 12.5 0 0 0 146.35 416.15L105.175 375H275A150 150 0 1 0 125 225A12.5 12.5 0 0 0 150 225A125 125 0 1 1 275 350H105.175L146.35 308.85A12.5 12.5 0 1 0 128.65 291.1500000000001L66.15 353.6500000000001A12.5 12.5 0 0 0 66.15 371.35L128.65 433.85A12.5 12.5 0 0 0 146.35 433.85z" />
    <glyph glyph-name="arrow_right"
      unicode="&#xE07E;"
      horiz-adv-x="500" d="M270.925 434.25A12.5 12.5 0 0 1 254.075 415.75L408.25 275H62.5A12.5 12.5 0 0 1 62.5 250H408.2L254.075 109.3A12.5 12.5 0 0 1 270.925 90.825L443.825 248.675A18.675 18.675 0 0 1 443.825 276.375L270.925 434.25z" />
    <glyph glyph-name="arrow_rotate_clockwise"
      unicode="&#xE07F;"
      horiz-adv-x="500" d="M75 250A175 175 0 1 0 325 91.85V137.5A12.5 12.5 0 0 1 300 137.5V62.5A12.5 12.5 0 0 1 312.5 50H387.5A12.5 12.5 0 0 1 387.5 75H346.9A200 200 0 1 1 50 250A12.5 12.5 0 0 1 75 250zM250 200A50 50 0 1 1 250 300A50 50 0 0 1 250 200zM250 225A25 25 0 1 0 250 275A25 25 0 0 0 250 225z" />
    <glyph glyph-name="arrow_rotate_counterclockwise"
      unicode="&#xE080;"
      horiz-adv-x="500" d="M425 250A175 175 0 1 1 175 91.85V137.5A12.5 12.5 0 0 0 200 137.5V62.5A12.5 12.5 0 0 0 187.5 50H112.5A12.5 12.5 0 0 0 112.5 75H153.1A200 200 0 1 0 450 250A12.5 12.5 0 0 0 425 250zM250 200A50 50 0 1 0 250 300A50 50 0 0 0 250 200zM250 225A25 25 0 1 1 250 275A25 25 0 0 1 250 225z" />
    <glyph glyph-name="arrow_routing_rectangle_multiple"
      unicode="&#xE082;"
      horiz-adv-x="500" d="M371.35 446.35A12.5 12.5 0 0 1 353.65 428.65L407.325 375H287.5A62.5 62.5 0 0 1 225 312.5V162.5A37.5 37.5 0 0 0 187.5 125H173.75A62.5 62.5 0 1 1 173.75 100H187.5A62.5 62.5 0 0 1 250 162.5V312.5A37.5 37.5 0 0 0 287.5 350H407.325L353.65 296.35A12.5 12.5 0 0 1 371.35 278.65L446.35 353.65A12.5 12.5 0 0 1 446.35 371.35L371.35 446.35zM150 112.5A37.5 37.5 0 1 0 75 112.5A37.5 37.5 0 0 0 150 112.5zM275 187.5A12.5 12.5 0 0 0 287.5 200H412.5A12.5 12.5 0 0 0 425 187.5V87.5A12.5 12.5 0 0 0 412.5 75H287.5A12.5 12.5 0 0 0 275 87.5V187.5zM475 137.5A12.5 12.5 0 0 1 450 137.5V75A25 25 0 0 0 425 50H337.5A12.5 12.5 0 0 1 337.5 25H425A50 50 0 0 1 475 75V137.5z" />
    <glyph glyph-name="arrow_routing"
      unicode="&#xE081;"
      horiz-adv-x="500" d="M371.35 446.35A12.5 12.5 0 0 1 353.65 428.65L407.325 375H287.5A62.5 62.5 0 0 1 225 312.5V162.5A37.5 37.5 0 0 0 187.5 125H173.75A62.5 62.5 0 1 1 173.75 100H187.5A62.5 62.5 0 0 1 250 162.5V312.5A37.5 37.5 0 0 0 287.5 350H407.325L353.65 296.35A12.5 12.5 0 0 1 371.35 278.65L446.35 353.65A12.5 12.5 0 0 1 446.35 371.35L371.35 446.35zM150 112.5A37.5 37.5 0 1 0 75 112.5A37.5 37.5 0 0 0 150 112.5z" />
    <glyph glyph-name="arrow_shuffle_off"
      unicode="&#xE084;"
      horiz-adv-x="500" d="M71.35 446.35A12.5 12.5 0 1 1 53.65 428.65L152.35 330C126.95 342.2 97.75 350 62.5 350A12.5 12.5 0 1 1 62.5 325C122.95 325 162.925 299.425 200.5 266.825L208.275 274.025L225.975 256.35C180.05 213.55 136.725 175 62.5 175A12.5 12.5 0 0 1 62.5 150C147.725 150 197.625 195.7 243.675 238.65L261.35 220.975L256.1 216.05C269.5250000000001 204.275 283.7 192.925 299.25 183.05L428.6500000000001 53.65A12.5 12.5 0 0 1 446.35 71.35L71.35 446.35zM374.3 178.75L402.825 150.2000000000001L407.375 150.075L405.175 147.85L422.85 130.175L446.35 153.675A12.5 12.5 0 0 1 446.35 171.35L396.35 221.35A12.5 12.5 0 0 1 378.65 203.675L407.25 175.0749999999999A187.45 187.45 0 0 0 374.3 178.75zM263.05 289.975L280.825 272.225C315.5 301.275 353.025 323.6 407.25 324.95L378.65 296.35A12.5 12.5 0 0 1 396.35 278.675L446.35 328.675A12.5 12.5 0 0 1 446.35 346.35L396.35 396.35A12.5 12.5 0 0 1 378.65 378.675L407.4 349.95C343.95 348.575 300.4 321.575 263.075 289.95z" />
    <glyph glyph-name="arrow_shuffle"
      unicode="&#xE083;"
      horiz-adv-x="500" d="M396.35 396.35A12.5 12.5 0 0 1 378.65 378.675L407.4 349.9500000000001C324.325 348.15 275.325 302.4 229.775 259.9000000000001L228.975 259.1500000000001C181.925 215.225 138.325 175 62.5 175A12.5 12.5 0 0 1 62.5 150C148.675 150 198.75 196.75 245.25 240.125L246.025 240.875C291.975 283.75 334.65 323.125 407.2750000000001 324.95L378.6500000000001 296.35A12.5 12.5 0 0 1 396.35 278.675L446.35 328.675A12.5 12.5 0 0 1 446.35 346.35L396.35 396.35zM62.5 350C132.75 350 179.025 318.925 218.9 283.9500000000001L211.9 277.4250000000001C208.05 273.8000000000001 204.2500000000001 270.2750000000001 200.475 266.8250000000001C162.925 299.425 123 325 62.5 325A12.5 12.5 0 0 0 62.5 350zM407.3750000000001 150.05C339.975 151.55 295 181.925 256.1 216.05L263.1 222.6C266.9500000000001 226.2 270.75 229.75 274.5250000000001 233.2C310.975 201.525 349.725 176.5 407.2750000000001 175.075L378.6500000000001 203.675A12.5 12.5 0 0 0 396.35 221.35L446.35 171.35A12.5 12.5 0 0 0 446.35 153.675L396.35 103.675A12.5 12.5 0 0 0 378.65 121.35L407.4 150.075z" />
    <glyph glyph-name="arrow_sort_down_lines"
      unicode="&#xE087;"
      horiz-adv-x="500" d="M180.25 117.75L246.35 183.85A12.5 12.5 0 0 0 264.025 166.175L177.325 79.5A12.5 12.5 0 0 0 167.725 75.025H167.7A12.5 12.5 0 0 0 158.85 78.7L158.6 78.9500000000001L71.35 166.2000000000001A12.5 12.5 0 1 0 89.025 183.8750000000001L155.225 117.6500000000001V412.5A12.5 12.5 0 0 0 180.225 412.5V117.75zM237.5 400A12.5 12.5 0 0 1 237.5 375H412.5A12.5 12.5 0 1 1 412.5 400H237.5zM237.5 325A12.5 12.5 0 0 1 237.5 300H362.5A12.5 12.5 0 1 1 362.5 325H237.5zM237.5 250A12.5 12.5 0 0 1 237.5 225H287.5A12.5 12.5 0 1 1 287.5 250H237.5z" />
    </font>
</defs>
</svg>
